<?xml version="1.0" encoding="UTF-8"?>
<svg width="129px" height="53px" viewBox="0 0 129 53" version="1.1" xmlns="http://www.w3.org/2000/svg" xmlns:xlink="http://www.w3.org/1999/xlink">
    <!-- Generator: Sketch 52.4 (67378) - http://www.bohemiancoding.com/sketch -->
    <title>BBVANextTechnologies_PANTONE</title>
    <desc>Created with Sketch.</desc>
    <g id="Proyectos" stroke="none" stroke-width="1" fill="none" fill-rule="evenodd">
        <g id="Landing-Proyectos" transform="translate(-228.000000, -18.000000)">
            <g id="BBVANextTechnologies_PANTONE" transform="translate(228.000000, 18.000000)">
                <g id="Group-5" fill="#FFFFFF">
                    <path d="M34.6556414,12.3192501 L37.0564352,8.83427991 C37.6627835,7.96093642 37.7924304,7.41275338 37.7924304,6.79927968 C37.7924304,5.08879346 36.2446464,3.65175232 34.4648279,3.65175232 L30.7722196,3.65175232 L30.7722196,24.2389989 L32.8166507,24.2389989 C36.2406573,24.2389989 38.8375835,22.4431823 38.8375835,18.2348432 C38.8375835,14.761509 37.1608175,12.9100984 34.6556414,12.3192501 M36.0930593,28 L24,28 L24,0 L36.5325289,0 C42.4085231,0 44.4549488,4.65373782 41.4803846,8.94934663 L40.074215,10.9791753 C49.9306999,15.9567807 46.7267605,28 36.0930593,28" id="Fill-1"></path>
                    <path d="M10.4687619,12.7451778 L12.8066667,9.27097778 C13.3985905,8.40033333 13.5242286,7.85384444 13.5242286,7.24226667 C13.5242286,5.53706667 12.0178667,4.10446667 10.2835429,4.10446667 L6.68601905,4.10446667 L6.68601905,24.6280889 L8.67809524,24.6280889 C12.0120381,24.6280889 14.5409905,22.8378222 14.5409905,18.6424889 C14.5409905,15.1798889 12.9089905,13.3342 10.4687619,12.7451778 M11.8689143,28.3774667 L0.0887238095,28.3774667 L0.0887238095,0.464 L12.2982857,0.464 C18.0206476,0.464 20.0172571,5.10335556 17.117219,9.38568889 L15.7475048,11.4092444 C25.3484571,16.3714667 22.2269333,28.3774667 11.8689143,28.3774667" id="Fill-2"></path>
                    <path d="M63.4563048,0.461422222 L67.8814857,0.461422222 L59.3348571,28.3652222 L52.6054476,28.3632889 L43.4371048,0.467222222 L48.3894476,0.461422222 C50.3044571,0.461422222 50.8057143,0.954422222 51.807581,4.11477778 L57.1154667,21.6572 L63.4563048,0.461422222" id="Fill-4"></path>
                    <path d="M72.4873954,17.8543976 L76.3372926,5.08250185 L80.2438731,17.8543976 L72.4873954,17.8543976 Z M82.4427906,2.85587583 C81.6472711,0.519955654 81.1117125,0.00388026608 79.026813,0.00388026608 L73.6353932,0 L65,28 L69.400441,28 L71.2507894,21.9558389 L81.5143587,21.9558389 L83.37448,27.9980599 L91,27.9980599 L82.4427906,2.85587583 Z" id="Fill-6"></path>
                </g>
                <polyline id="Fill-7" fill="#26AAAD" points="0 50 0 38 1.23686554 38 7.87666963 47.891748 7.90939448 47.891748 7.90939448 38 9 38 9 50 7.97417631 50 1.12333037 39.7994676 1.09060552 39.7994676 1.09060552 50 0 50"></polyline>
                <path d="M17.9482933,44.8267186 C17.8381636,43.1849633 17.0852884,41.9522989 15.6098077,41.9522989 C14.4170577,41.9522989 13.2874229,42.8890969 13.0987211,44.8267186 L17.9482933,44.8267186 Z M12,45.4838251 C12,42.4287854 13.883798,41 15.6259085,41 C17.5399761,41 19,42.5440318 19,45.5 L19,45.7136439 L13.0832643,45.7136439 C13.0987211,47.8325595 14.2599135,49.0477011 15.7985095,49.0477011 C16.8965866,49.0477011 17.6810194,48.6035645 18.4506394,47.7665119 L18.9838992,48.5058409 C18.0738798,49.5073386 17.1632165,50 15.7824087,50 C13.6950961,50 12,48.4397933 12,45.4838251 Z" id="Fill-8" fill="#26AAAD"></path>
                <polyline id="Fill-9" fill="#26AAAD" points="19 49.8992767 21.9595116 45.341378 19.2660668 41.2165207 20.346401 41 22.5546272 44.5061287 24.7159383 41.1171679 25.8746787 41.1171679 23.1028278 45.341378 26 49.7992387 24.93509 50 22.5077121 46.2088314 20.1587404 49.8992767 19 49.8992767"></polyline>
                <path d="M28.5069982,48.8239008 L28.5069982,43.1702368 L27,43.1702368 L27,42.2144307 L28.5069982,42.2144307 L28.5069982,39.1643743 L29.6491371,39 L29.6491371,42.2144307 L31.9177877,42.2144307 L31.9177877,43.1702368 L29.6491371,43.1702368 L29.6491371,48.6588501 C29.6491371,49.5821871 29.9970105,50.0435175 31.0066585,50.0435175 C31.3212393,50.0435175 31.6358201,49.994814 31.8675092,49.9285231 L32,50.9012401 C31.7187118,50.9506201 31.239027,51 30.808262,51 C29.2516646,51 28.5069982,50.4060879 28.5069982,48.8239008" id="Fill-10" fill="#26AAAD"></path>
                <polyline id="Fill-11" fill="#26AAAD" points="39.8826667 50 39.8826667 39.0700976 36 39.0700976 36 38 44.8213333 38 45 39.0700976 41.036 39.0700976 41.036 50 39.8826667 50"></polyline>
                <path d="M48.9494847,44.8267186 C48.8387008,43.1849633 48.0857563,41.9522989 46.610784,41.9522989 C45.4172801,41.9522989 44.2875414,42.8890969 44.0988222,44.8267186 L48.9494847,44.8267186 Z M43,45.4838251 C43,42.4287854 44.8833272,41 46.6255981,41 C48.5404858,41 50,42.5440318 50,45.5 L50,45.7136439 L44.083364,45.7136439 C44.0988222,47.8325595 45.2607656,49.0477011 46.798859,49.0477011 C47.8976813,49.0477011 48.6821862,48.6035645 49.451233,47.7665119 L49.9845418,48.5058409 C49.0744387,49.5073386 48.1643357,50 46.7827567,50 C44.6952521,50 43,48.4397933 43,45.4838251 Z" id="Fill-12" fill="#26AAAD"></path>
                <path d="M52,45.5 C52,42.3957616 53.9039893,41 55.8253483,41 C57.3879557,41 58.3974041,41.8545754 58.9839664,43.0528681 L58.104791,43.5954021 C57.6157664,42.5440318 56.9650697,41.9522989 55.7932812,41.9522989 C54.5226188,41.9522989 53.1223516,42.9221207 53.1223516,45.5 C53.1223516,47.7173132 54.262741,49.0477011 55.7765795,49.0477011 C56.9323344,49.0477011 57.6004008,48.4728171 58.1695934,47.3560731 L59,47.8979332 C58.2838328,49.2781938 57.2423172,50 55.7117771,50 C53.7416492,50 52,48.3744196 52,45.5" id="Fill-13" fill="#26AAAD"></path>
                <path d="M62,50 L62,38.1606258 L63.1308986,38 L63.1308986,42.8643825 C63.98395,42.0268811 65.0818837,41.3500055 66.393753,41.3500055 C68.1314753,41.3500055 69,42.2681503 69,43.8473064 L69,50 L67.8684286,50 L67.8684286,44.0720502 C67.8684286,42.8809078 67.3443537,42.3005398 66.1307064,42.3005398 C65.0334455,42.3005398 64.0983181,42.8643825 63.1308986,43.7825273 L63.1308986,50 L62,50" id="Fill-14" fill="#26AAAD"></path>
                <path d="M70,50 L70,41.1850069 L71.0165305,41.1850069 L71.1315714,42.5756534 C71.98395,41.7042641 73.0818837,41 74.393753,41 C76.1314753,41 77,41.9552957 77,43.5983494 L77,50 L75.8684286,50 L75.8684286,43.8321871 C75.8684286,42.5928473 75.3443537,41.9718019 74.1307064,41.9718019 C73.0334455,41.9718019 72.0983181,42.5591472 71.1315714,43.5144429 L71.1315714,50 L70,50" id="Fill-15" fill="#26AAAD"></path>
                <path d="M86.8429837,45.5 C86.8429837,43.5954021 85.869741,41.9691478 84.0079153,41.9691478 C82.2128538,41.9691478 81.156328,43.4639808 81.156328,45.5 C81.156328,47.4221207 82.1130517,49.0308522 84.0079153,49.0308522 C85.7857696,49.0308522 86.8429837,47.5366931 86.8429837,45.5 Z M80,45.5 C80,42.6100794 81.8280995,41 84.0079153,41 C86.1712123,41 88,42.6100794 88,45.5 C88,48.3744196 86.1712123,50 84.0079153,50 C81.8446184,50 80,48.3744196 80,45.5 Z" id="Fill-16" fill="#26AAAD"></path>
                <polyline id="Fill-17" fill="#26AAAD" points="90 50 90 38.1606258 91 38 91 50 90 50"></polyline>
                <path d="M98.8429837,45.5 C98.8429837,43.5954021 97.869741,41.9691478 96.0079153,41.9691478 C94.2128538,41.9691478 93.156328,43.4639808 93.156328,45.5 C93.156328,47.4221207 94.1130517,49.0308522 96.0079153,49.0308522 C97.7857696,49.0308522 98.8429837,47.5366931 98.8429837,45.5 Z M92,45.5 C92,42.6100794 93.8280995,41 96.0079153,41 C98.1712123,41 100,42.6100794 100,45.5 C100,48.3744196 98.1712123,50 96.0079153,50 C93.8439301,50 92,48.3744196 92,45.5 Z" id="Fill-18" fill="#26AAAD"></path>
                <path d="M106.671578,44.1017824 C106.671578,42.7377978 105.767586,41.8935532 104.204848,41.8935532 C102.693441,41.8935532 101.754515,42.7704481 101.754515,44.1017824 C101.754515,45.4164584 102.728375,46.2613693 104.221958,46.2613693 C105.716255,46.2613693 106.671578,45.4164584 106.671578,44.1017824 Z M107.47077,50.6778278 C107.47077,49.8662335 106.775665,49.4604364 104.969106,49.3298351 L103.144724,49.2005664 C102.988593,49.1845744 102.831749,49.167916 102.675618,49.151924 C101.651141,49.4604364 101.147101,50.0608029 101.147101,50.7098118 C101.147101,51.603365 102.154468,52.1231051 104.465067,52.1231051 C106.341492,52.1231051 107.47077,51.5387306 107.47077,50.6778278 Z M100,50.8564051 C100,49.9795102 100.625238,49.2971847 101.685361,48.9073796 C101.129278,48.6968183 100.869059,48.3396635 100.869059,47.8199234 C100.869059,47.3001832 101.320342,46.8617358 101.981226,46.5372314 C101.112167,46.0174913 100.591017,45.1405964 100.591017,44.0851241 C100.591017,42.2673663 102.137357,41 104.204848,41 C105.264259,41 106.167538,41.3245044 106.810599,41.8775612 C107.331749,41.5197401 108.130941,41.1792437 108.825333,41.097951 L109,42.1534233 C108.443203,42.1534233 107.800856,42.234716 107.261882,42.4452774 C107.609078,42.8837248 107.800856,43.4194569 107.800856,44.0851241 C107.800856,45.9528569 106.237405,47.1222722 104.204848,47.1222722 C103.665875,47.1222722 103.178945,47.0409795 102.728375,46.8777278 C102.293489,47.0409795 101.998337,47.2841912 101.998337,47.6086957 C101.998337,47.9658504 102.328422,48.1604198 103.353612,48.2583708 L105.351236,48.4049642 C107.47077,48.5668832 108.582937,49.2485424 108.582937,50.5805431 C108.582937,52.1390971 106.845532,53 104.343156,53 C101.372386,53 100,52.1717475 100,50.8564051 Z" id="Fill-19" fill="#26AAAD"></path>
                <path d="M111.095261,51 L111.916952,51 L111.916952,42.3301015 L111.095261,42.3301015 L111.095261,51 Z M111,39.6919955 C111,39.2638106 111.190523,39 111.499756,39 C111.809477,39 112,39.2638106 112,39.6919955 C112,40.1377678 111.809477,40.4178129 111.499756,40.4178129 C111.190523,40.4178129 111,40.1377678 111,39.6919955 Z" id="Fill-20" fill="#26AAAD"></path>
                <path d="M119.948197,44.8267186 C119.838057,43.1849633 119.084468,41.9522989 117.609496,41.9522989 C116.416636,41.9522989 115.286897,42.8890969 115.098178,44.8267186 L119.948197,44.8267186 Z M114,45.4838251 C114,42.4287854 115.882683,41 117.625598,41 C119.539842,41 121,42.5440318 121,45.5 L121,45.7136439 L115.082076,45.7136439 C115.098178,47.8325595 116.259477,49.0477011 117.797571,49.0477011 C118.896393,49.0477011 119.681542,48.6035645 120.449945,47.7665119 L120.983898,48.5058409 C120.073795,49.5073386 119.163047,50 117.782113,50 C115.694608,50 114,48.4397933 114,45.4838251 Z" id="Fill-21" fill="#26AAAD"></path>
                <path d="M122,48.4666316 L122.64653,47.7746881 C123.362257,48.5660604 124.265302,49.0767323 125.525512,49.0767323 C127.058313,49.0767323 127.858612,48.4997745 127.858612,47.5765068 C127.858612,46.6207726 127.245632,46.2250864 125.389216,45.8124906 C123.225961,45.3024951 122.271892,44.7580039 122.271892,43.2746881 C122.271892,42.0382534 123.379031,41 125.321418,41 C126.81997,41 127.825062,41.4782053 128.625362,42.2202014 L128.029156,43.0108973 C127.296655,42.3351871 126.479581,41.939501 125.354968,41.939501 C123.992012,41.939501 123.41328,42.5496017 123.41328,43.2253119 C123.41328,44.0335939 123.907439,44.3961371 125.559061,44.7742372 C127.943884,45.3187284 129,45.8625432 129,47.4946641 C129,49.0929656 127.534998,50 125.508038,50 C123.87319,50 122.698253,49.3242898 122,48.4666316" id="Fill-22" fill="#26AAAD"></path>
            </g>
        </g>
    </g>
</svg>