<?xml version="1.0" encoding="UTF-8"?>
<svg width="248px" height="88px" viewBox="0 0 248 88" version="1.1" xmlns="http://www.w3.org/2000/svg" xmlns:xlink="http://www.w3.org/1999/xlink">
    <!-- Generator: Sketch 52.4 (67378) - http://www.bohemiancoding.com/sketch -->
    <title>Group 25</title>
    <desc>Created with Sketch.</desc>
    <g id="Login-with-Google" stroke="none" stroke-width="1" fill="none" fill-rule="evenodd">
        <g transform="translate(-474.000000, -275.000000)" id="Group">
            <g transform="translate(474.000000, 233.000000)">
                <g id="Group-2">
                    <g id="Group-25" transform="translate(0.000000, 41.000000)">
                        <polygon id="Fill-1" fill="#1973B8" points="0 1.07228916 0 87.1406506 13.4502261 87.1406506 13.4502261 49.4904337 0.090573913 1.07228916"></polygon>
                        <g id="Group-24" transform="translate(0.000000, 0.497971)">
                            <path d="M83.9737704,55.8209072 C83.9737704,72.4167265 91.6801009,81.9054133 102.09071,85.8064012 L88.7181183,37.3421482 C85.8078922,42.080594 83.9737704,48.1711964 83.9737704,55.8209072" id="Fill-2" fill="#1973B8"></path>
                            <polygon id="Fill-4" fill="#49A5E6" points="160.815169 23.8360229 147.014508 26.0460108 166.428595 54.7737096 144.674682 86.6421434 159.411273 86.6421434 172.796803 66.0102277 161.412525 24.7496133"></polygon>
                            <polygon id="Fill-6" fill="#8F7AE5" points="207.012932 24.9989205 207.012932 36.2804747 217.487158 36.2804747 214.374219 24.9989205"></polygon>
                            <path d="M217.538591,69.6611578 C217.538591,81.1678928 221.958383,86.0425193 231.532261,87.1812904 L217.538591,36.4652301 L217.538591,69.6611578 Z" id="Fill-8" fill="#8F7AE5"></path>
                            <polygon id="Fill-10" fill="#2DCCCD" points="56.0237391 62.106988 55.7897565 62.106988 14.8546609 0.581180723 0.0921913043 0.581180723 13.4518435 48.998253 13.4518435 23.9581566 13.6858261 23.9581566 56.2577217 86.6484699 69.5904174 86.6484699 69.5904174 0.581180723 56.0237391 0.581180723"></polygon>
                            <path d="M140.815694,60.4796819 L140.815694,57.1062602 C140.815694,40.7399108 134.956424,31.5353807 127.156285,27.1046819 L136.364633,60.4796819 L140.815694,60.4796819 Z" id="Fill-12" fill="#49A5E6"></path>
                            <path d="M113.44857,35.3562687 C122.102692,35.3562687 126.898797,40.8227988 127.600744,49.8954373 L98.4779965,49.8954373 C99.8818922,40.0089313 106.314797,35.3562687 113.44857,35.3562687 Z M127.156501,27.1039313 C122.981475,24.7331 118.253301,23.7262205 113.565023,23.7262205 C104.952953,23.7262205 94.6156661,27.7483771 88.7197357,37.3485819 L102.092327,85.8128349 C105.90937,87.2421964 110.085475,87.9273892 114.384501,87.9273892 C125.026936,87.9273892 133.097718,84.670847 140.113962,78.0419554 L134.384083,68.6197506 C129.589057,73.2724133 122.92217,76.5289554 115.202901,76.5289554 C105.846831,76.5289554 98.8295096,71.2961843 98.3615443,60.4800036 L136.364849,60.4800036 L127.156501,27.1039313 Z" id="Fill-14" fill="#58BEFF"></path>
                            <polygon id="Fill-16" fill="#1973B8" points="201.751127 25.0051398 187.130988 25.0051398 174.501318 44.7770795 161.414466 24.7552964 172.797666 66.0159108 173.447857 65.0154651 188.418431 87.8112602 202.219092 85.4843928 181.40111 54.7804651"></polygon>
                            <path d="M240.46425,76.1807831 C234.615763,76.1807831 231.80905,74.0876747 231.80905,67.4577108 L231.80905,36.2873373 L244.050546,36.2873373 L240.936529,25.0047108 L231.80905,25.0047108 L231.80905,2.32579518 L217.540424,4.41890361 L217.540424,25.0047108 L214.376807,25.0047108 L217.488668,36.2873373 L217.540424,36.2873373 L217.540424,36.4717711 L231.534094,87.1878313 C233.087868,87.3733373 234.774268,87.4623373 236.604077,87.4623373 C240.46425,87.4623373 246.194129,86.8811566 247.948459,86.5315904 L246.778546,75.2500361 C245.024216,75.7143373 242.802998,76.1807831 240.46425,76.1807831" id="Fill-18" fill="#2DCCCD"></path>
                            <polygon id="Fill-20" fill="#C569B9" points="247.832007 36.2872301 247.832007 25.0056759 240.936529 25.0056759 244.050546 36.2872301"></polygon>
                            <polygon id="Fill-22" fill="#4CBBC2" points="217.489099 36.2872301 217.513899 36.379447 217.540856 36.4716639 217.540856 36.2872301"></polygon>
                        </g>
                    </g>
                </g>
            </g>
        </g>
    </g>
</svg>