<?xml version="1.0" standalone="no"?>
<!DOCTYPE svg PUBLIC "-//W3C//DTD SVG 1.1//EN" "http://www.w3.org/Graphics/SVG/1.1/DTD/svg11.dtd" >
<svg xmlns="http://www.w3.org/2000/svg">
<defs>
  <font id="coronita-icons" horiz-adv-x="260">
    <font-face font-family="coronita-icons"
      units-per-em="260" ascent="260"
      descent="0" />
    <missing-glyph horiz-adv-x="0" />
    <glyph glyph-name="BBVAcontigo"
      unicode="&#xE001;"
      horiz-adv-x="32" d="M15.311 19.268L16.406 20.93C16.689 21.348 16.738 21.582 16.738 21.878C16.738 22.69 16.024 23.355 15.212 23.355H13.538V13.509H14.473C16.036 13.509 17.23 14.395 17.23 16.401C17.23 18.075 16.467 18.986 15.31 19.269zM29.538 29.52H2.461C1.784 29.52 1.23 29.015 1.23 28.338V2.48L6.153 7.366H29.538C30.215 7.366 30.769 7.957 30.769 8.634V28.339C30.769 29.016 30.215 29.521 29.538 29.521zM16.492 12.289H11.077V24.597H16.689C19.323 24.597 20.234 22.579 18.904 20.683L18.276 19.785C22.682 17.594 21.242 12.29 16.491 12.29z" />
    <glyph glyph-name="account"
      unicode="&#xE002;"
      horiz-adv-x="32" d="M26.154 26.154H1.333V10.359H26.154V26.154zM4.718 22.769H11.487L9.231 20.513H4.718V22.769zM18.268 14.872H4.718V17.128H20.513L18.268 14.872zM28.41 19.384V8.102H5.846L3.59 5.846H30.667V21.641L28.411 19.385z" />
    <glyph glyph-name="add"
      unicode="&#xE003;"
      horiz-adv-x="32" d="M16 30.769C7.84 30.769 1.231 24.16 1.231 16S7.84 1.231 16 1.231C24.16 1.231 30.769 7.84 30.769 16S24.16 30.769 16 30.769zM22.154 14.708H17.169V8.554H14.707V14.708H8.553V17.17H14.707V23.324H17.169V17.17H24.615L22.153 14.708z" />
    <glyph glyph-name="agenda"
      unicode="&#xE004;"
      horiz-adv-x="32" d="M25.852 27.101C25.852 19.963 25.852 10.879 25.852 3.692C25.729 3.692 14.824 3.692 8.338 3.692C6.233 3.692 6.283 6.166 8.363 6.166H8.375C8.375 6.166 23.267 6.166 23.39 6.166C23.39 13.428 23.39 30.535 23.39 30.535H23.415V30.781H6.787C5.101 30.793 3.698 29.341 3.698 27.63V25.87H6.16V23.408H3.698V22.362C3.698 22.313 3.71 22.3 3.71 22.251L3.722 19.716H6.159V17.254H3.722V13.562H6.159V11.1H3.722V4.602C3.722 3.002 5.433 1.697 6.971 1.328C7.254 1.254 7.562 1.23 7.857 1.23C14.946 1.23 21.211 1.218 28.3 1.218C28.3 8.947 28.3 19.335 28.3 27.089C27.82 27.101 26.466 27.101 25.851 27.101zM9.975 16.025H19.698L17.421 13.563H9.975V16.025z" />
    <glyph glyph-name="alarm"
      unicode="&#xE005;"
      horiz-adv-x="32" d="M7.436 17.178L10.397 17.751L17.865 10.23L17.052 7.496L7.437 17.178zM21.438 8.75L26.852 14.204C28.572 15.938 29.532 18.231 29.559 20.645C29.572 22.525 29.026 24.326 27.972 25.833L30.666 28.54L28.532 30.687L25.878 28.007C24.331 29.141 22.491 29.741 20.557 29.701C18.183 29.661 15.93 28.687 14.196 26.941C13.809 26.554 9.662 22.38 8.782 21.487L1.767 19.607C1.287 19.474 1.194 19.1 1.54 18.74L6.821 13.486C6.794 13.459 6.768 13.433 6.741 13.406C4.954 11.619 4.954 8.699 6.741 6.898C8.528 5.111 11.422 5.111 13.209 6.898C13.236 6.925 13.262 6.951 13.289 6.978L18.637 1.524C18.984 1.177 19.37 1.271 19.504 1.751L21.438 8.752z" />
    <glyph glyph-name="alert"
      unicode="&#xE006;"
      horiz-adv-x="32" d="M16 8.001C17.107 8.001 18 7.108 18 6.001S17.107 4.001 16 4.001C14.893 4.001 14 4.894 14 6.001S14.893 8.001 16 8.001zM17.334 10.668H14.667V21.336L17.334 18.669V10.668zM30.509 2.813L16.747 30.057C16.334 30.87 15.667 30.87 15.253 30.057L1.491 2.813C1.078 2 1.504 1.333 2.438 1.333H29.562C30.495 1.333 30.922 2 30.509 2.813z" />
    <glyph glyph-name="appstore"
      unicode="&#xE007;"
      horiz-adv-x="32" d="M16.284 22.823C16.801 22.823 17.641 23.03 18.804 23.43S20.988 24.037 21.841 24.037C23.25 24.037 24.503 23.662 25.601 22.9C26.221 22.461 26.829 21.879 27.436 21.13C26.519 20.355 25.847 19.657 25.42 19.05C24.658 17.952 24.27 16.737 24.27 15.406C24.27 13.946 24.671 12.641 25.485 11.478S27.229 9.566 28.263 9.255C27.824 7.846 27.1 6.373 26.092 4.836C24.567 2.536 23.055 1.386 21.556 1.386C20.962 1.386 20.135 1.58 19.088 1.955S17.15 2.524 16.439 2.524C15.715 2.524 14.875 2.33 13.919 1.93S12.187 1.336 11.593 1.336C9.797 1.336 8.027 2.861 6.295 5.91C4.602 8.908 3.736 11.867 3.736 14.762C3.736 17.45 4.395 19.647 5.726 21.339C7.044 23.032 8.724 23.885 10.74 23.885C11.593 23.885 12.64 23.704 13.854 23.355C15.069 22.993 15.883 22.825 16.283 22.825zM21.66 29.917C21.66 29.18 21.492 28.379 21.143 27.514S20.251 25.834 19.515 25.098C18.869 24.465 18.236 24.038 17.603 23.832C17.202 23.703 16.595 23.612 15.781 23.535C15.807 25.28 16.259 26.778 17.151 28.058C18.043 29.324 19.503 30.203 21.558 30.668C21.61 30.513 21.636 30.384 21.648 30.267C21.648 30.151 21.661 30.034 21.661 29.918z" />
    <glyph glyph-name="atm"
      unicode="&#xE008;"
      horiz-adv-x="32" d="M1.333 29.444V19.666H6.222V3.765C6.222 3.093 6.772 2.555 7.444 2.555H24.555C25.239 2.555 25.777 3.093 25.777 3.765V19.666H30.666V29.444H1.333zM12.333 6.222L9.889 8.666V14.777H12.333V6.221zM28.222 22.111H25.778V24.555H22.111V6.222L19.667 8.666V24.555H6.223V22.111H3.779V27H28.223V22.111z" />
    <glyph glyph-name="audio"
      unicode="&#xE009;"
      horiz-adv-x="32" d="M15.693 28.683L7.268 21.849H2.587C1.932 21.849 1.417 21.322 1.417 20.679V11.318C1.417 10.686 1.944 10.148 2.587 10.148H7.268L15.693 3.326C16.208 2.94 16.629 3.139 16.629 3.806V28.204C16.629 28.859 16.196 29.058 15.693 28.684zM21.485 20.819L18.993 18.338C20.362 16.969 20.362 14.734 18.993 13.365L21.485 10.884C24.235 13.622 24.235 18.069 21.485 20.819zM26.458 25.792L23.966 23.311C28.085 19.192 28.085 12.51 23.966 8.392L26.458 5.911C31.958 11.387 31.958 20.292 26.458 25.792z" />
    <glyph glyph-name="auto"
      unicode="&#xE00A;"
      horiz-adv-x="32" d="M29.428 19.698H28.025L25.588 28.055C25.551 28.203 25.391 28.313 25.243 28.313H6.843C6.695 28.313 6.535 28.202 6.498 28.055L3.95 19.698H2.572C1.834 19.698 1.23 19.095 1.23 18.356V17.014C1.23 16.276 1.833 15.636 2.572 15.636H3.692V9.051C3.692 9.002 3.692 8.953 3.692 8.903V5.026C3.692 4.288 4.295 3.684 5.034 3.684H6.585C7.323 3.684 7.877 4.287 7.877 5.026V6.158H24V5.038C24 4.3 24.603 3.696 25.342 3.696H26.684C27.422 3.696 28.309 4.299 28.309 5.038V15.635H29.429C30.167 15.635 30.771 16.263 30.771 17.013V18.355C30.771 19.093 30.168 19.697 29.429 19.697zM8.615 25.852H23.384L25.23 19.698H6.768L8.614 25.852zM8 12.314C6.978 12.314 6.154 13.139 6.154 14.16S6.979 16.006 8 16.006C9.022 16.006 9.846 15.181 9.846 14.16S9.021 12.314 8 12.314zM24 12.314C22.978 12.314 22.154 13.139 22.154 14.16S22.979 16.006 24 16.006S25.846 15.181 25.846 14.16C25.846 13.138 25.021 12.314 24 12.314z" />
    <glyph glyph-name="autobank"
      unicode="&#xE00B;"
      horiz-adv-x="32" d="M28.666 29.493H1.691V2.518H4.306V26.878H28.666zM29.218 15.537H28.08L26.11 22.281C26.075 22.398 25.946 22.457 25.829 22.457H10.934C10.817 22.457 10.688 22.398 10.653 22.281L8.589 15.537H7.475C6.877 15.537 6.384 14.997 6.384 14.388V13.297C6.384 12.699 6.877 12.253 7.475 12.253H8.378V6.858C8.378 6.823 8.378 6.788 8.378 6.741V3.598C8.378 3 8.859 2.507 9.469 2.507H10.724C11.322 2.507 11.78 3 11.78 3.598V4.513H24.798V3.61C24.798 3.012 25.314 2.519 25.912 2.519H27.003C27.601 2.519 28.317 3.012 28.317 3.61V12.254H29.22C29.818 12.254 30.311 12.7 30.311 13.298V14.389C30.311 14.987 29.818 15.538 29.22 15.538zM12.364 20.463H24.327L25.828 15.537H10.863L12.364 20.463zM12.13 8.969C11.157 8.969 10.371 9.755 10.371 10.728S11.157 12.487 12.13 12.487C13.103 12.487 13.889 11.701 13.889 10.728S13.103 8.969 12.13 8.969zM24.562 8.969C23.589 8.969 22.803 9.755 22.803 10.728S23.589 12.487 24.562 12.487S26.321 11.701 26.321 10.728C26.321 9.755 25.535 8.969 24.562 8.969z" />
    <glyph glyph-name="back"
      unicode="&#xE00C;"
      horiz-adv-x="32" d="M20.167 11L18.501 9.334L11.836 15.999L13.502 17.665L20.167 11zM20.165 21L13.5 14.335L11.834 16.001L18.499 22.666L20.165 21z" />
    <glyph glyph-name="balance"
      unicode="&#xE00D;"
      horiz-adv-x="32" d="M16.959 9.231H17.061V11.138C18.483 11.499 19.385 12.503 19.385 13.868C19.385 15.335 18.708 16.057 16.508 16.959C15.019 17.568 14.692 17.85 14.692 18.448C14.692 19.091 15.2 19.475 16.147 19.475C16.847 19.475 17.58 19.238 18.178 18.832L18.392 18.685L18.539 18.583L18.573 18.741L18.618 18.978L18.844 20.253L18.867 20.355L18.878 20.423L18.81 20.457L18.708 20.502C18.212 20.761 17.67 20.931 17.072 21.01V21.924L15.312 22.77H15.21V20.976C13.709 20.683 12.75 19.701 12.75 18.347C12.75 16.971 13.416 16.294 15.616 15.391C17.128 14.771 17.455 14.488 17.455 13.766C17.455 13.033 16.857 12.581 15.864 12.581C15.018 12.581 14.104 12.852 13.28 13.348L13.066 13.472L12.919 13.551L12.896 13.404L12.862 13.178L12.648 11.869L12.637 11.767L12.614 11.711L12.682 11.677L12.784 11.632C13.484 11.294 14.318 11.079 15.21 11.012V10.064L16.959 9.229zM6.974 22.769C9.027 25.511 12.31 27.282 16 27.282C20.908 27.282 25.082 24.157 26.628 19.779L29.99 20.388C28.128 26.345 22.566 30.666 16 30.666C11.374 30.666 7.256 28.522 4.56 25.183L2.462 27.281L1.334 19.384L9.231 20.512L6.975 22.768zM22.769 11.487L25.025 9.231C22.972 6.489 19.689 4.718 15.999 4.718C11.091 4.718 6.917 7.843 5.371 12.221L2.009 11.612C3.871 5.655 9.433 1.334 15.999 1.334C20.625 1.334 24.743 3.478 27.439 6.817L29.537 4.719L30.665 12.616L22.768 11.488z" />
    <glyph glyph-name="bank"
      unicode="&#xE00E;"
      horiz-adv-x="32" d="M2.462 4.308H29.539V1.846H2.462V4.308zM15.951 30.154L2.462 22.769V20.307H29.539V22.769zM4.923 17.846H9.846V6.769H4.923V17.846zM13.538 17.846H18.461V6.769H13.538V17.846zM22.154 17.846H27.077V6.769H22.154V17.846z" />
    <glyph glyph-name="bar"
      unicode="&#xE00F;"
      horiz-adv-x="32" d="M29.951 26.166L23.009 26.154V29.256C23.009 29.724 22.677 30.154 22.197 30.154H2.049C1.581 30.154 1.224 29.723 1.224 29.256V2.745C1.224 2.277 1.581 1.847 2.049 1.847H22.209C22.677 1.847 23.021 2.278 23.021 2.745V8.16L29.963 8.148C30.394 8.148 30.775 8.493 30.775 8.923V25.391C30.763 25.822 30.381 26.166 29.95 26.166zM7.625 15.385H7.539L5.041 17.859V26.339H7.626V15.385zM26.948 12.185H23.01V22.4H26.948V12.185z" />
    <glyph glyph-name="barcode"
      unicode="&#xE010;"
      horiz-adv-x="32" d="M30.098 27.071H1.913C1.531 27.071 1.236 26.776 1.236 26.419V5.582C1.236 5.225 1.544 4.93 1.913 4.93H30.085C30.467 4.93 30.762 5.225 30.762 5.582V26.419C30.774 26.776 30.467 27.071 30.097 27.071zM7.391 8.609H4.929V23.378H7.391V8.609zM12.314 8.609H9.852V11.071H12.314V8.609zM12.314 13.532H9.852V23.378H12.314V13.532zM17.237 8.609H14.775V11.071H17.237V8.609zM17.237 13.532H14.775V23.378H17.237V13.532zM22.16 8.609H19.698V11.071H22.16V8.609zM22.16 13.532H19.698V23.378H22.16V13.532zM27.083 8.609H24.621V23.378H27.083V8.609z" />
    <glyph glyph-name="bbvaofice"
      unicode="&#xE011;"
      horiz-adv-x="32" d="M15.935 18.981L16.983 20.571C17.254 20.971 17.301 21.219 17.301 21.501C17.301 22.278 16.618 22.937 15.841 22.937H14.24V13.517H15.135C16.63 13.517 17.773 14.341 17.773 16.26C17.773 17.861 17.043 18.709 15.936 18.98zM16.006 30.72C9.506 30.72 4.232 25.445 4.232 18.946C4.232 18.828 4.232 18.71 4.232 18.593C4.468 8.196 15.017 1.555 15.017 1.555C15.559 1.19 16.43 1.19 16.96 1.543C16.96 1.543 27.533 8.196 27.769 18.592C27.769 18.71 27.769 18.828 27.769 18.945C27.781 25.445 22.506 30.719 16.006 30.719zM17.066 12.352H11.885V24.126H17.254C19.774 24.126 20.645 22.171 19.373 20.358L18.772 19.51C22.987 17.414 21.61 12.351 17.065 12.351z" />
    <glyph glyph-name="bill"
      unicode="&#xE012;"
      horiz-adv-x="32" d="M25.859 30.769H24.616L23.385 29.538H22.154V30.769H20.923L19.692 29.538H18.461V30.769H17.23L15.999 29.538H14.768V30.769H13.537L12.306 29.538H11.075V30.769H9.844L8.613 29.538H7.382V30.769H6.139C5.462 30.769 4.921 30.215 4.921 29.538V2.461C4.921 1.784 5.463 1.23 6.139 1.23H7.382L8.613 2.461H9.844V1.23H11.075L12.306 2.461H13.537V1.23H14.768L15.999 2.461H17.23V1.23H18.461L19.692 2.461H20.923V1.23H22.154L23.385 2.461H24.616V1.23H25.859C26.536 1.23 27.077 1.784 27.077 2.461V29.538C27.077 30.215 26.535 30.769 25.859 30.769zM17.231 9.994V7.385L14.769 8.616V9.908C13.735 10.031 12.812 10.302 12 10.683L12.357 12.788C13.391 12.197 14.671 11.73 15.902 11.73C16.985 11.73 17.736 12.235 17.736 13.195C17.736 14.081 17.305 14.45 15.521 15.201C13.133 16.161 12.173 16.924 12.173 18.795C12.173 20.469 13.207 21.589 14.77 21.995V24.617L17.232 23.386V22.094C18.081 21.983 18.758 21.749 19.398 21.429L19.041 19.337C18.155 19.915 17.096 20.272 16.136 20.272C14.954 20.272 14.438 19.718 14.438 18.98C14.438 18.217 14.832 17.848 16.543 17.146C19.078 16.137 20.001 15.275 20.001 13.417C20.001 11.546 18.881 10.389 17.232 9.995z" />
    <glyph glyph-name="block"
      unicode="&#xE013;"
      horiz-adv-x="32" d="M16 30.769C7.84 30.769 1.231 24.16 1.231 16S7.84 1.231 16 1.231S30.769 7.84 30.769 16S24.16 30.769 16 30.769zM4.923 16C4.923 22.117 9.883 27.077 16 27.077C18.425 27.077 20.677 26.289 22.498 24.96L7.04 9.502C5.711 11.324 4.923 13.576 4.923 16zM16 4.923C13.575 4.923 11.323 5.711 9.502 7.04L24.96 22.498C26.289 20.676 27.077 18.424 27.077 16C27.077 9.883 22.117 4.923 16 4.923z" />
    <glyph glyph-name="blockcard"
      unicode="&#xE014;"
      horiz-adv-x="32" d="M9.846 4.923H29.538C30.215 4.923 30.769 5.465 30.769 6.141V25.846L9.846 4.923zM24.615 9.846H19.692V12.308H27.077L24.615 9.846zM2.462 1.231L28.308 27.077V30.769L24.616 27.077H2.462C1.785 27.077 1.231 26.535 1.231 25.859V22.154H19.693L17.231 19.692H1.231V6.141C1.231 5.464 1.785 4.923 2.462 4.923V4.923V1.231z" />
    <glyph glyph-name="bluetooth"
      unicode="&#xE015;"
      horiz-adv-x="32" d="M24 21.858L13.809 30.769V18.941L8 23.963V20.443L13.292 15.901L8 11.224V8.024L13.809 13.058V1.23L24 10.141L17.218 15.999L24 21.857zM16.443 6.991V13.194L20.025 10.117L16.443 6.991zM20.037 21.858L16.443 18.695V24.997L20.037 21.859z" />
    <glyph glyph-name="bookstore"
      unicode="&#xE016;"
      horiz-adv-x="32" d="M25.846 27.077C25.846 19.939 25.846 10.892 25.846 3.705C25.723 3.705 14.252 3.693 7.729 3.693C5.612 3.693 5.649 6.155 7.741 6.155C11.15 6.155 23.261 6.155 23.384 6.155C23.384 13.417 23.384 23.632 23.384 30.77C17.107 30.77 12.898 30.77 6.67 30.77C6.313 30.647 5.932 30.573 5.599 30.401C4.454 29.823 3.777 28.863 3.691 27.57C3.691 27.521 3.691 27.472 3.691 27.41C3.691 20.801 3.691 11.201 3.691 4.592C3.691 2.992 4.799 1.687 6.349 1.318C6.644 1.244 6.94 1.232 7.247 1.232C14.385 1.232 21.167 1.232 28.305 1.232C28.305 8.974 28.305 19.324 28.305 27.078C27.813 27.078 26.459 27.078 25.843 27.078zM8.615 25.846H18.461L15.999 23.384H8.614V25.846z" />
    <glyph glyph-name="build"
      unicode="&#xE017;"
      horiz-adv-x="32" d="M5.538 28.923V2.708C5.538 2.265 6.03 1.846 6.473 1.846H13.045V7.631H19.076V1.846H25.784C26.227 1.846 26.461 2.252 26.461 3.077V30.154L5.538 28.923zM11.692 11.692H8V15.384H11.692V11.692zM11.692 17.969H8V21.538H11.692V17.969zM17.846 11.692H14.154V15.384H17.846V11.692zM17.846 17.969H14.154V21.538H17.846V17.969zM24 11.692H20.308V15.384H24V11.692zM24 17.969H20.308V21.538H24V17.969z" />
    <glyph glyph-name="calculator"
      unicode="&#xE018;"
      horiz-adv-x="32" d="M27.077 28.8C27.077 29.206 26.745 29.538 26.339 29.538H5.662C5.256 29.538 4.924 29.206 4.924 28.8V3.2C4.924 2.794 5.256 2.462 5.662 2.462H26.339C26.745 2.462 27.077 2.794 27.077 3.2V28.8zM8.492 25.846H23.261L20.799 22.769H8.491V25.846zM11.692 5.415H8.615V8.492H11.692V5.415zM11.692 10.954H8.615V14.031H11.692V10.954zM11.692 16.492H8.615V19.569H11.692V16.492zM17.477 5.415H14.4V8.492H17.477V5.415zM17.477 10.954H14.4V14.031H17.477V10.954zM17.477 16.492H14.4V19.569H17.477V16.492zM23.385 5.415H20.308V8.492H23.385V5.415zM23.385 10.954H20.308V14.031H23.385V10.954zM23.385 16.492H20.308V19.569H23.385V16.492z" />
    <glyph glyph-name="calendar"
      unicode="&#xE019;"
      horiz-adv-x="32" d="M17.231 8.622V6.16H19.693V8.622H17.231zM12.308 8.622V6.16H14.77V8.622H12.308zM7.385 8.622V6.16H9.847V8.622H7.385zM22.154 18.468V16.006H24.616V18.468H22.154zM17.231 18.468V16.006H19.693V18.468H17.231zM12.308 18.468V16.006H14.77V18.468H12.308zM22.154 13.545V11.083H24.616V13.545H22.154zM17.231 13.545V11.083H19.693V13.545H17.231zM12.308 13.545V11.083H14.77V13.545H12.308zM7.385 13.545V11.083H9.847V13.545H7.385zM6.154 23.391V20.929H23.508L25.97 23.391H6.155zM25.846 27.083H28.431C29.108 27.083 29.539 26.677 29.539 26.012V3.834C29.539 3.157 29.121 2.456 28.431 2.456H3.816C3.139 2.456 2.462 3.17 2.462 3.834V26.012C2.462 26.689 3.127 27.083 3.816 27.083H6.154V29.545H8.616V27.083H23.385V29.545H25.847V27.083z" />
    <glyph glyph-name="camera"
      unicode="&#xE01A;"
      horiz-adv-x="32" d="M29.538 24.615H23.384V28.307H12.307L8.615 24.615H2.461C1.784 24.615 1.23 24.061 1.23 23.384V4.922C1.23 4.245 1.784 3.691 2.461 3.691H29.538C30.215 3.691 30.769 4.245 30.769 4.922V23.384C30.769 24.049 30.215 24.615 29.538 24.615zM4.923 18.462V20.924H12.308L9.846 18.462H4.923zM20.308 6.154C15.89 6.154 12.308 9.736 12.308 14.154S15.89 22.154 20.308 22.154S28.308 18.572 28.308 14.154C28.308 9.736 24.726 6.154 20.308 6.154zM20.308 19.815C19.976 19.815 19.643 19.778 19.323 19.729V17.194C19.631 17.292 19.963 17.354 20.308 17.354C22.006 17.354 23.385 15.976 23.385 14.277C23.385 14.068 23.36 13.859 23.323 13.662H25.809C25.834 13.859 25.846 14.068 25.846 14.277C25.846 17.329 23.372 19.815 20.308 19.815z" />
    <glyph glyph-name="cash"
      unicode="&#xE01B;"
      horiz-adv-x="32" d="M29.538 19.692V7.384H4.923L2.461 4.922H31.999V22.153L29.537 19.691zM27.077 27.077H0V9.846H27.077V27.077zM8.775 17.231H2.461L4.923 19.693H8.775C8.677 19.299 8.615 18.893 8.615 18.462S8.664 17.625 8.775 17.231zM13.538 16C12.184 16 11.076 17.108 11.076 18.462S12.184 20.924 13.538 20.924C14.892 20.924 16 19.816 16 18.462S14.892 16 13.538 16zM22.154 17.231H18.302C18.4 17.625 18.462 18.031 18.462 18.462S18.413 19.299 18.302 19.693H24.616L22.154 17.231z" />
    <glyph glyph-name="cashregister"
      unicode="&#xE01C;"
      horiz-adv-x="32" d="M29.502 16.739C29.527 16.813 29.539 16.899 29.539 16.985V28.8C29.539 29.206 29.207 29.538 28.801 29.538H14.019C13.613 29.538 13.281 29.206 13.281 28.8V20.923H3.201C2.795 20.923 2.463 20.591 2.463 20.185V3.2C2.463 2.794 2.795 2.462 3.201 2.462H28.764C29.17 2.462 29.502 2.794 29.502 3.2V16.738zM5.538 17.846H8V15.384H5.538V17.846zM9.465 17.846H11.927V15.384H9.465V17.846zM13.403 17.846H15.865V15.384H13.403V17.846zM5.538 13.908H8V11.446H5.538V13.908zM9.465 13.908H11.927V11.446H9.465V13.908zM13.403 13.908H15.865V11.446H13.403V13.908zM5.538 9.969H8V7.507H5.538V9.969zM9.465 9.969H15.853V7.507H9.465V9.969zM25.625 14.769C24.776 14.769 24.087 15.458 24.087 16.307S24.776 17.845 25.625 17.845S27.163 17.156 27.163 16.307S26.474 14.769 25.625 14.769V14.769V14.769zM15.852 27.077H27.163V21.588H15.852V27.077zM23.212 23.163L25.538 25.501V25.624H17.723V23.162H23.212z" />
    <glyph glyph-name="chargecard"
      unicode="&#xE01D;"
      horiz-adv-x="32" d="M29.538 27.077H2.461C1.784 27.077 1.23 26.535 1.23 25.859V22.154H15.999L13.537 19.692H1.229V6.141C1.229 5.464 1.783 4.923 2.46 4.923H29.537C30.214 4.923 30.768 5.465 30.768 6.141V25.858C30.768 26.535 30.214 27.076 29.537 27.076zM23.385 17.231V11.077L20.923 8.615V17.23H18.461L22.153 22.153L25.845 17.23H23.383z" />
    <glyph glyph-name="chargemovil"
      unicode="&#xE01E;"
      horiz-adv-x="32" d="M14.769 3.692C14.769 3.003 15.323 2.461 16 2.461C16.689 2.461 17.231 3.015 17.231 3.692C17.231 4.381 16.677 4.923 16 4.923C15.311 4.923 14.769 4.369 14.769 3.692zM11.077 11.077V8.615H20.923V20.923L11.077 11.077zM8.615 28.308V6.154H23.384V28.308H8.615zM6.154 29.538C6.154 30.215 6.696 30.769 7.385 30.769H24.616C25.293 30.769 25.847 30.215 25.847 29.538V2.461C25.847 1.784 25.305 1.23 24.616 1.23H7.385C6.708 1.23 6.154 1.784 6.154 2.461V29.538zM11.077 13.538L20.923 23.384V25.846L11.077 16z" />
    <glyph glyph-name="checkmark"
      unicode="&#xE01F;"
      horiz-adv-x="32" d="M4.252 15.126L5.987 16.874L12.079 10.782L26.011 24.702L27.746 22.967L12.078 7.299z" />
    <glyph glyph-name="clock"
      unicode="&#xE020;"
      horiz-adv-x="32" d="M16 30.769C7.84 30.769 1.231 24.16 1.231 16S7.84 1.231 16 1.231C24.16 1.231 30.769 7.84 30.769 16S24.16 30.769 16 30.769zM20.923 14.769H14.769V25.846L17.231 23.384V17.23H23.385L20.923 14.768z" />
    <glyph glyph-name="close"
      unicode="&#xE021;"
      horiz-adv-x="32" d="M7.385 5.465L5.465 7.385L14.179 16.087L5.65 24.616L7.385 26.351L15.914 17.822L24.616 26.536L26.536 24.616L17.822 15.914L26.536 7.212L24.788 5.464L16.086 14.178z" />
    <glyph glyph-name="coffeshop"
      unicode="&#xE022;"
      horiz-adv-x="32" d="M1.237 5.169H28.314V2.215H1.237V5.169zM30 29.785H2.468V12.923C2.468 9.415 5.286 7.508 8.77 7.508H17.902C21.385 7.508 24.61 9.416 24.61 12.923V18.708H29.988C30.406 18.708 30.763 19.077 30.763 19.508V28.763C30.775 29.194 30.431 29.785 30 29.785zM6.16 20.197V26.092H8.622V17.477L6.16 20.197zM28.314 21.169H24.622V27.323H28.314V21.169z" />
    <glyph glyph-name="collapse"
      unicode="&#xE023;"
      horiz-adv-x="32" d="M8.667 17.128V14.872H21.077L23.333 17.128z" />
    <glyph glyph-name="communication"
      unicode="&#xE024;"
      horiz-adv-x="32" d="M24.957 12.126V28.428C24.957 28.988 24.408 29.436 23.849 29.436H2.452C1.892 29.436 1.444 28.988 1.444 28.428V7.043L5.632 11.298H23.849C24.409 11.298 24.957 11.567 24.957 12.127zM14.88 18.239H5.923V20.478H17.12L14.881 18.239zM19.359 22.718H5.923V24.957H21.598L19.359 22.718zM29.861 19.359H27.196V12.003C27.196 10.57 26.02 9.282 24.408 9.282H12.64V6.841C12.64 6.449 12.987 5.923 13.39 5.923H27.24L30.554 2.564V18.631C30.554 19.023 30.252 19.359 29.86 19.359z" />
    <glyph glyph-name="configuration"
      unicode="&#xE025;"
      horiz-adv-x="32" d="M16 9.846C14.302 9.846 12.923 8.468 12.923 6.769S14.301 3.692 16 3.692S19.077 5.07 19.077 6.769S17.699 9.846 16 9.846zM16 19.077C14.302 19.077 12.923 17.699 12.923 16S14.301 12.923 16 12.923S19.077 14.301 19.077 16S17.699 19.077 16 19.077zM16 22.154C17.698 22.154 19.077 23.532 19.077 25.231S17.699 28.308 16 28.308S12.923 26.93 12.923 25.231S14.301 22.154 16 22.154z" />
    <glyph glyph-name="consult"
      unicode="&#xE026;"
      horiz-adv-x="32" d="M24.648 7.893C25.566 9.165 26.12 10.731 26.12 12.414C26.12 16.665 22.67 20.126 18.408 20.126C14.157 20.126 10.696 16.676 10.696 12.414S14.146 4.702 18.408 4.702C20.104 4.702 21.658 5.244 22.929 6.174L27.827 1.276L29.534 2.983L24.648 7.893zM21.834 12.415C21.834 14.311 20.303 15.841 18.408 15.841V17.548C21.246 17.548 23.542 15.252 23.542 12.414H21.835zM10.743 5.997H5.527C5.138 5.997 4.821 6.315 4.821 6.703V27.662C4.821 28.051 5.139 28.368 5.527 28.368H21.776C22.165 28.368 22.482 28.05 22.482 27.662V21.586C23.342 21.197 24.13 20.691 24.837 20.091V30.017C24.837 30.406 24.519 30.723 24.131 30.723H3.172C2.783 30.723 2.466 30.405 2.466 30.017V4.348C2.466 3.959 2.784 3.642 3.172 3.642H13.663C12.544 4.243 11.555 5.043 10.743 5.997z" />
    <glyph glyph-name="continue"
      unicode="&#xE027;"
      horiz-adv-x="32" d="M16 30.769C7.84 30.769 1.231 24.16 1.231 16S7.84 1.231 16 1.231C24.16 1.231 30.769 7.84 30.769 16S24.16 30.769 16 30.769zM17.735 12.812L16 11.077L9.034 18.043L10.769 19.778L15.987 14.56L21.205 19.778L22.94 18.043L17.734 12.812z" />
    <glyph glyph-name="contract"
      unicode="&#xE028;"
      horiz-adv-x="32" d="M29.058 24.762L24.664 29.18C24.184 29.66 23.409 29.66 22.929 29.18L19.003 25.242L23.286 20.934H19.606L17.157 23.396L2.462 8.614V2.46H8.591L29.059 23.014C29.539 23.506 29.539 24.282 29.059 24.762zM14.769 4.922L12.307 2.46H29.538V4.922H14.769z" />
    <glyph glyph-name="copy"
      unicode="&#xE029;"
      horiz-adv-x="32" d="M24.615 8.615V28.32C24.615 28.997 24.073 29.538 23.397 29.538H3.68C3.003 29.538 2.462 28.996 2.462 28.32V8.615C2.462 7.938 3.004 7.397 3.68 7.397H23.385C24.074 7.385 24.616 7.939 24.616 8.615zM27.077 22.154V4.923H9.846L7.384 2.461H28.319C28.996 2.461 29.537 3.003 29.537 3.679V24.614L27.075 22.152z" />
    <glyph glyph-name="copycard"
      unicode="&#xE02A;"
      horiz-adv-x="32" d="M25.877 10.513V25.877C25.877 26.492 25.383 26.974 24.78 26.974H2.831C2.216 26.974 1.734 26.48 1.734 25.877V23.682H21.488L19.293 21.487H1.734V10.513C1.734 9.898 2.228 9.416 2.831 9.416H24.78C25.395 9.416 25.877 9.91 25.877 10.513zM19.292 12.708H14.902V14.903H21.487L19.292 12.708zM28.072 22.585V7.221H6.123L3.928 5.026H30.266V24.78L28.071 22.585z" />
    <glyph glyph-name="correct"
      unicode="&#xE02B;"
      horiz-adv-x="32" d="M16 30.769C7.84 30.769 1.231 24.16 1.231 16S7.84 1.231 16 1.231S30.769 7.84 30.769 16S24.16 30.769 16 30.769zM14.831 11.348L12.96 9.477L7.742 14.695L9.477 16.43L12.96 12.947L22.523 22.522L24.258 20.787L14.83 11.347z" />
    <glyph glyph-name="correctlocation"
      unicode="&#xE02C;"
      horiz-adv-x="32" d="M16.006 30.72C9.506 30.72 4.232 25.445 4.232 18.946C4.232 18.828 4.232 18.71 4.232 18.593C4.468 8.196 15.017 1.555 15.017 1.555C15.559 1.19 16.43 1.19 16.96 1.543C16.96 1.543 27.533 8.196 27.769 18.592C27.769 18.71 27.769 18.828 27.769 18.945C27.781 25.445 22.506 30.719 16.006 30.719zM13.745 13.059L8.329 18.475L10.001 20.135L13.745 16.391L21.41 24.056L23.07 22.384L13.745 13.059z" />
    <glyph glyph-name="creditcard"
      unicode="&#xE02D;"
      horiz-adv-x="32" d="M17.231 12.302V9.84H23.385L25.847 12.302H17.232zM1.231 22.148V19.686H23.385L25.847 22.148H1.232zM1.231 25.852C1.231 26.529 1.785 27.07 2.462 27.07H29.539C30.216 27.07 30.77 26.528 30.77 25.852V6.147C30.77 5.47 30.216 4.929 29.539 4.929H2.462C1.785 4.929 1.231 5.471 1.231 6.147V25.852z" />
    <glyph glyph-name="currencyexchange"
      unicode="&#xE02E;"
      horiz-adv-x="32" d="M9.465 8.8C6.154 9.538 3.693 12.48 3.693 16S6.155 22.462 9.465 23.2C10.376 24.652 11.557 25.908 12.923 26.917C12.32 27.015 11.705 27.077 11.077 27.077C4.96 27.077 0 22.117 0 16S4.96 4.923 11.077 4.923C11.705 4.923 12.32 4.972 12.923 5.083C11.545 6.08 10.375 7.348 9.465 8.8zM20.923 27.077C14.806 27.077 9.846 22.117 9.846 16S14.806 4.923 20.923 4.923S32 9.883 32 16S27.04 27.077 20.923 27.077zM22.031 10.695V8.615H21.969L20.061 9.526V10.56C19.076 10.634 18.19 10.868 17.415 11.237L17.304 11.286L17.23 11.323L17.242 11.397L17.254 11.508L17.488 12.936L17.525 13.182L17.55 13.342L17.71 13.256L17.944 13.121C18.842 12.592 19.839 12.284 20.762 12.284C21.845 12.284 22.497 12.776 22.497 13.576C22.497 14.364 22.152 14.684 20.491 15.348C18.103 16.32 17.377 17.059 17.377 18.573C17.377 20.05 18.46 21.121 20.06 21.441V23.386H20.171L22.029 22.475V21.478C22.767 21.392 23.297 21.207 23.838 20.924L23.961 20.875L24.035 20.838L24.023 20.764L23.998 20.653L23.752 19.262L23.703 19.004L23.666 18.832L23.506 18.943L23.272 19.103C22.62 19.546 21.82 19.805 21.057 19.805C20.035 19.805 19.469 19.387 19.469 18.685C19.469 18.033 19.826 17.725 21.451 17.06C23.851 16.075 24.565 15.3 24.565 13.688C24.59 12.186 23.63 11.091 22.03 10.697z" />
    <glyph glyph-name="deposit"
      unicode="&#xE02F;"
      horiz-adv-x="32" d="M24.615 24.615H7.384V22.153H11.076L8.614 19.691H7.383V12.306H11.075L8.613 9.844H7.382V7.382H24.613V24.613zM19.692 13.538C18.338 13.538 17.23 14.646 17.23 16S18.338 18.462 19.692 18.462S22.154 17.354 22.154 16S21.046 13.538 19.692 13.538zM28.308 29.538H3.693C3.004 29.538 2.462 28.984 2.462 28.307V3.692C2.462 3.003 3.016 2.461 3.693 2.461H28.308C28.997 2.461 29.539 3.015 29.539 3.692V28.307C29.539 28.996 28.985 29.538 28.308 29.538zM27.077 4.923H4.923V27.077H27.077V4.923z" />
    <glyph glyph-name="desktop"
      unicode="&#xE030;"
      horiz-adv-x="32" d="M29.538 29.538H2.461C1.784 29.538 1.23 28.984 1.23 28.307V8.615C1.23 7.938 1.784 7.384 2.461 7.384H29.538C30.215 7.384 30.769 7.938 30.769 8.615V28.307C30.769 28.984 30.227 29.538 29.538 29.538zM28.308 9.846H3.693V27.077H28.308V9.846zM24.615 24.615H6.153V12.307H12.307zM0 4.923H32V2.461H0V4.923z" />
    <glyph glyph-name="digitalcard"
      unicode="&#xE031;"
      horiz-adv-x="32" d="M20.308 8.615V6.153H5.539V28.307H20.308V25.845H22.77V29.537C22.77 30.214 22.265 30.768 21.576 30.768H4.345C3.668 30.768 3.077 30.214 3.077 29.537V2.46C3.077 1.783 3.668 1.229 4.345 1.229H21.576C22.265 1.229 22.77 1.783 22.77 2.46V8.614H20.308zM12.96 2.462C12.283 2.462 11.729 3.004 11.729 3.693C11.729 4.37 12.271 4.924 12.96 4.924C13.637 4.924 14.191 4.382 14.191 3.693C14.191 3.016 13.649 2.462 12.96 2.462zM28.185 23.385H12.431C12.025 23.385 11.693 23.053 11.693 22.647V20.924H26.462L24 18.462H11.692V11.816C11.692 11.41 12.024 11.078 12.43 11.078H28.184C28.59 11.078 28.922 11.41 28.922 11.816V22.647C28.922 23.053 28.59 23.385 28.184 23.385z" />
    <glyph glyph-name="dischargecard"
      unicode="&#xE032;"
      horiz-adv-x="32" d="M29.538 27.077H2.461C1.784 27.077 1.23 26.535 1.23 25.859V22.154H15.999L13.537 19.692H1.229V6.141C1.229 5.464 1.783 4.923 2.46 4.923H29.537C30.214 4.923 30.768 5.465 30.768 6.141V25.858C30.768 26.535 30.214 27.076 29.537 27.076zM22.154 8.615L18.462 13.538H20.924V19.692L23.386 22.154V13.539H25.848L22.156 8.616z" />
    <glyph glyph-name="discount"
      unicode="&#xE033;"
      horiz-adv-x="32" d="M30.769 19.926V26.154C30.769 26.609 30.597 27.077 30.154 27.077H2.216C1.773 27.077 1.231 26.609 1.231 26.154V19.926C3.323 19.926 5.12 18.129 5.12 15.914S3.323 11.902 1.231 11.902V5.662C1.231 5.207 1.773 4.924 2.216 4.924H30.154C30.597 4.924 30.769 5.207 30.769 5.662V11.89C28.677 11.89 26.88 13.687 26.88 15.902C26.88 18.13 28.677 19.927 30.769 19.927zM11.262 22.166C12.616 22.166 13.724 21.058 13.724 19.692S12.616 17.218 11.262 17.218S8.8 18.326 8.8 19.692C8.8 21.058 9.908 22.166 11.262 22.166zM21.108 9.797C19.754 9.797 18.646 10.905 18.646 12.271S19.754 14.745 21.108 14.745S23.57 13.637 23.57 12.271C23.57 10.905 22.462 9.797 21.108 9.797zM12.492 9.846H8.8L19.877 22.277H23.569L12.492 9.846z" />
    <glyph glyph-name="document"
      unicode="&#xE034;"
      horiz-adv-x="32" d="M19.723 30.775H5.741C5.31 30.775 4.929 30.43 4.929 30V2C4.929 1.569 5.311 1.225 5.741 1.225H26.319C26.75 1.225 27.07 1.57 27.07 2V23.391L19.722 30.776zM22.726 20.56H17.237V30.775H19.699V23.021H25.188L22.726 20.559z" />
    <glyph glyph-name="dollar"
      unicode="&#xE035;"
      horiz-adv-x="32" d="M16 30.769C7.84 30.769 1.231 24.16 1.231 16S7.84 1.231 16 1.231S30.769 7.84 30.769 16S24.16 30.769 16 30.769zM17.231 8.751V6.154L14.769 7.385V8.665C13.489 8.788 12.369 9.133 11.384 9.613L11.79 12.148C12.984 11.434 14.461 10.868 15.876 10.868C17.131 10.868 17.993 11.471 17.993 12.628C17.993 13.699 17.501 14.13 15.445 15.028C12.688 16.173 11.58 17.096 11.58 19.336C11.58 21.416 12.86 22.782 14.755 23.225V25.847L17.217 24.616V23.336C18.288 23.225 19.112 22.93 19.9 22.511L19.494 20C18.46 20.689 17.254 21.132 16.146 21.132C14.792 21.132 14.189 20.467 14.189 19.581C14.189 18.658 14.644 18.227 16.614 17.39C19.531 16.172 20.602 15.15 20.602 12.91C20.614 10.584 19.236 9.181 17.23 8.75z" />
    <glyph glyph-name="donation"
      unicode="&#xE036;"
      horiz-adv-x="32" d="M16 30.769C7.84 30.769 1.231 24.16 1.231 16S7.84 1.231 16 1.231S30.769 7.84 30.769 16S24.16 30.769 16 30.769zM21.785 23.385C23.139 23.385 24.247 22.277 24.247 20.923S23.139 18.461 21.785 18.461S19.323 19.569 19.323 20.923C19.323 22.277 20.431 23.385 21.785 23.385zM10.215 23.385C11.569 23.385 12.677 22.277 12.677 20.923S11.569 18.461 10.215 18.461S7.753 19.569 7.753 20.923C7.753 22.277 8.861 23.385 10.215 23.385zM24.172 12.603C23.15 9.009 19.889 6.486 16.012 6.486S8.874 9.009 7.852 12.603C7.717 13.071 8.074 13.538 8.566 13.538H23.446C23.951 13.538 24.308 13.07 24.172 12.603z" />
    <glyph glyph-name="download"
      unicode="&#xE037;"
      horiz-adv-x="32" d="M16 30.667C7.897 30.667 1.333 24.104 1.333 16S7.896 1.333 16 1.333S30.667 7.896 30.667 16C30.667 24.103 24.104 30.667 16 30.667zM15.963 6.222L8.422 13.763L10.17 15.511L14.741 10.928L14.692 25.778L17.1 23.334V10.892L21.793 15.561L23.553 13.813L15.963 6.223z" />
    <glyph glyph-name="edit"
      unicode="&#xE038;"
      horiz-adv-x="32" d="M29.058 24.762L24.664 29.18C24.184 29.66 23.409 29.66 22.929 29.18L19.003 25.242L23.286 20.934H19.606L17.157 23.396L2.462 8.614V2.46H8.591L29.059 23.014C29.539 23.506 29.539 24.282 29.059 24.762zM14.769 4.922L12.307 2.46H29.538V4.922H14.769z" />
    <glyph glyph-name="education"
      unicode="&#xE039;"
      horiz-adv-x="32" d="M6.215 14.345V8.745L16 3.391L25.785 8.745V14.357L16 8.991L6.215 14.345zM16 28.609L0.615 20.203L16 11.797L28.591 18.677V8.991H31.385V20.203L16 28.609z" />
    <glyph glyph-name="email"
      unicode="&#xE03A;"
      horiz-adv-x="32" d="M30.098 27.077H1.913C1.531 27.077 1.236 26.769 1.236 26.4V5.6C1.236 5.231 1.544 4.923 1.913 4.923H30.085C30.467 4.923 30.762 5.231 30.762 5.6V26.4C30.774 26.769 30.467 27.077 30.097 27.077zM15.994 13.538L3.699 20.935V23.877L16.007 16.455L28.315 23.877V20.935L16.007 13.538z" />
    <glyph glyph-name="entretainment"
      unicode="&#xE03B;"
      horiz-adv-x="32" d="M30.769 19.994V26.234C30.769 26.689 30.412 27.071 29.969 27.071H11.077V22.148H8.615V27.071H2.03C1.587 27.071 1.23 26.689 1.23 26.234V20.006C3.322 20.006 5.119 18.209 5.119 15.994S3.322 11.982 1.23 11.982V5.754C1.23 5.299 1.587 4.929 2.03 4.929H8.615V9.852H11.077V4.929H29.969C30.412 4.929 30.769 5.286 30.769 5.754V11.982C28.615 11.982 26.88 13.779 26.88 15.994C26.88 18.197 28.615 19.994 30.769 19.994zM11.077 13.532H8.615V18.701H11.077V13.532z" />
    <glyph glyph-name="error"
      unicode="&#xE03C;"
      horiz-adv-x="32" d="M16 30.769C7.84 30.769 1.231 24.16 1.231 16S7.84 1.231 16 1.231S30.769 7.84 30.769 16S24.16 30.769 16 30.769zM23.914 9.822L22.179 8.087L16.087 14.179L9.995 8.087L8.075 10.007L14.167 16.099L8.259 22.007L9.994 23.742L15.914 17.822L22.006 23.914L23.926 21.994L17.834 15.902L23.914 9.822z" />
    <glyph glyph-name="euro"
      unicode="&#xE03D;"
      horiz-adv-x="32" d="M16 30.769C7.84 30.769 1.231 24.16 1.231 16S7.84 1.231 16 1.231S30.769 7.84 30.769 16S24.16 30.769 16 30.769zM17.231 19.077L14.769 16.615H9.871C9.846 16.418 9.846 16.209 9.846 16S9.858 15.582 9.871 15.385H17.231L14.769 12.923H10.671C11.729 11.089 13.723 9.846 16 9.846C17.698 9.846 19.237 10.535 20.357 11.643L22.092 9.908C20.529 8.345 18.375 7.385 16 7.385C11.237 7.385 7.385 11.237 7.385 16C7.385 16.209 7.397 16.406 7.41 16.615H7.385L7.41 16.64C7.742 21.095 11.459 24.615 16.001 24.615C18.376 24.615 20.53 23.655 22.093 22.092L20.358 20.357C19.25 21.465 17.712 22.154 16.001 22.154C13.724 22.154 11.743 20.911 10.672 19.077H17.232z" />
    <glyph glyph-name="excel"
      unicode="&#xE03E;"
      horiz-adv-x="32" d="M19.772 30.775H5.79C5.359 30.775 4.928 30.43 4.928 30V2C4.928 1.569 5.359 1.225 5.79 1.225H26.368C26.799 1.225 27.07 1.57 27.07 2V23.391L19.772 30.776zM11.403 12.437L10.246 14.443L9.151 12.437H7.28L9.311 15.871L7.428 18.96H9.446L10.431 17.237L11.329 18.96H13.151L11.329 15.846L13.384 12.437H11.402zM18.837 12.437H14.283V18.96H16.006V13.914H18.837V12.437zM22.123 12.314C20.621 12.314 19.735 12.991 19.169 13.877L20.486 14.689C20.88 14.061 21.52 13.692 22.209 13.692C22.751 13.692 23.157 13.852 23.157 14.258C23.157 14.676 22.64 14.836 21.988 14.996C20.917 15.267 19.49 15.55 19.49 17.039C19.49 18.381 20.499 19.107 21.988 19.107C23.379 19.107 24.216 18.455 24.733 17.827L23.551 16.855C23.182 17.298 22.554 17.68 21.988 17.68C21.483 17.68 21.225 17.508 21.225 17.2C21.225 16.769 21.742 16.609 22.382 16.449C23.453 16.191 24.893 15.858 24.893 14.394C24.881 13.348 24.155 12.314 22.124 12.314z" />
    <glyph glyph-name="executive"
      unicode="&#xE03F;"
      horiz-adv-x="32" d="M22.154 23.385C22.154 19.986 19.399 17.231 16 17.231S9.846 19.986 9.846 23.385C9.846 26.784 12.601 29.539 16 29.539S22.154 26.784 22.154 23.385zM19.865 15.668C19.053 15.262 18.13 14.979 17.231 14.843V14.757L18.462 6.129L16 3.667L13.538 6.129L14.769 14.757V14.843C13.76 14.978 12.947 15.261 12.135 15.668C7.286 14.486 3.692 10.117 3.692 4.899V2.462H28.307V4.899C28.307 10.117 24.713 14.487 19.864 15.668z" />
    <glyph glyph-name="expand"
      unicode="&#xE040;"
      horiz-adv-x="32" d="M22.667 17.026H16.513V22.154H14.462V17.026H9.334V14.975H14.462V9.847H16.513V14.975H20.616z" />
    <glyph glyph-name="exploration"
      unicode="&#xE041;"
      horiz-adv-x="32" d="M16 30.769C7.84 30.769 1.231 24.16 1.231 16S7.84 1.231 16 1.231S30.769 7.84 30.769 16C30.769 24.16 24.16 30.769 16 30.769zM18.609 13.477L7.298 7.385L13.427 18.733L24.701 24.788L18.609 13.477zM17.846 16C17.846 14.98 17.019 14.154 16 14.154S14.154 14.981 14.154 16C14.154 17.02 14.981 17.846 16 17.846S17.846 17.019 17.846 16z" />
    <glyph glyph-name="expressaccount"
      unicode="&#xE042;"
      horiz-adv-x="32" d="M28.203 19.47L26.167 7.938H3.692L0.962 5.59H28.179L31.036 21.784zM3.82 26.41L0.963 10.216H24.375L27.232 26.41H3.82zM6.677 22.94H13.617L10.899 20.627H6.272L6.677 22.94zM19.135 14.843H5.255L5.66 17.156H21.854L19.136 14.843z" />
    <glyph glyph-name="facebook"
      unicode="&#xE043;"
      horiz-adv-x="32" d="M16 30.769C7.84 30.769 1.231 24.16 1.231 16S7.84 1.231 16 1.231C24.16 1.231 30.769 7.84 30.769 16S24.16 30.769 16 30.769zM20.062 21.785H18.351C17.083 21.785 16.862 21.145 16.862 20.271V18.339H19.865L19.459 15.262H16.862V7.385H13.785V15.262H11.077V18.339H13.785V20.567C13.785 23.189 15.385 24.616 17.711 24.616C18.831 24.616 19.693 24.53 20.062 24.493V21.785z" />
    <glyph glyph-name="facebook2"
      unicode="&#xE044;"
      horiz-adv-x="32" d="M20.449 25.034C18.455 25.034 18.086 24.074 18.086 22.696V19.631H22.837L22.209 14.819H18.098V2.487H13.138V14.807H9.003V19.619H13.138V23.164C13.138 27.275 15.649 29.515 19.304 29.515C21.052 29.515 22.566 29.38 22.996 29.318V25.035H20.448z" />
    <glyph glyph-name="favorite"
      unicode="&#xE045;"
      horiz-adv-x="32" d="M15.926 22.763C15.409 26.591 12.332 29.532 8.615 29.532C4.541 29.532 1.23 26 1.23 21.63C1.23 21.248 1.255 20.867 1.304 20.498C1.255 20.498 1.23 20.498 1.23 20.498C1.23 11.476 15.999 2.455 15.999 2.455S30.768 11.477 30.768 20.51C30.768 20.51 30.743 20.51 30.694 20.51C30.743 20.879 30.768 21.261 30.768 21.642C30.768 25.999 27.457 29.544 23.383 29.544C19.666 29.544 16.589 26.602 16.072 22.775C16.047 22.775 16.023 22.775 15.998 22.775C15.973 22.763 15.949 22.763 15.924 22.763z" />
    <glyph glyph-name="fax"
      unicode="&#xE046;"
      horiz-adv-x="260" d="M180 220L110 220L110 200L160 200zM220 180V238C220 244.6 214.6 250 208 250H82C75.4 250 70 244.6 70 238V180H60V40H70H79.5C77.2 28.6 67.1 20 55 20C42.9 20 32.8 28.6 30.5 40H38C44.6 40 50 45.4 50 52V188C50 194.6 44.6 200 38 200H12C5.4 200 0 194.6 0 188V52C0 45.4 5.4 40 12 40H20.4C22.8 23 37.4 10 55 10L55 10C72.6 10 87.2 23 89.6 40H249.5C255.3 40 260 45.4 260 52V180H220zM90 230H200V180V160H90V180V230zM170 120H90V140H170V120zM209.8 120H190V140H220H229.8L209.8 120z" />
    <glyph glyph-name="filter-menu"
      unicode="&#xE047;"
      horiz-adv-x="32" d="M13.025 24.54C13.032 24.571 13.038 24.604 13.044 24.635S13.052 24.679 13.056 24.701S13.065 24.758 13.069 24.786S13.076 24.84 13.079 24.868S13.079 24.918 13.087 24.943S13.087 25.011 13.095 25.045S13.095 25.084 13.095 25.105C13.095 25.159 13.095 25.221 13.095 25.271S13.095 25.387 13.095 25.444C13.095 25.464 13.095 25.482 13.095 25.502C13.095 25.539 13.095 25.577 13.087 25.618S13.087 25.666 13.079 25.689S13.071 25.754 13.066 25.786S13.058 25.837 13.053 25.862S13.043 25.921 13.037 25.95S13.025 26.003 13.02 26.029S13.007 26.085 13.001 26.111S12.987 26.165 12.98 26.192S12.966 26.243 12.958 26.268S12.941 26.324 12.931 26.351L12.907 26.422Q12.892 26.465 12.876 26.508L12.851 26.572C12.839 26.602 12.827 26.631 12.814 26.66L12.789 26.717C12.775 26.748 12.761 26.778 12.746 26.809L12.722 26.857C12.706 26.889 12.688 26.922 12.671 26.954L12.651 26.988C12.63 27.024 12.61 27.06 12.588 27.095V27.095C12.472 27.281 12.35 27.443 12.215 27.593L12.218 27.59C11.579 28.302 10.655 28.748 9.628 28.748S7.677 28.302 7.04 27.593L7.037 27.59C6.906 27.444 6.785 27.284 6.678 27.113L6.669 27.098C6.647 27.063 6.627 27.027 6.606 26.991L6.586 26.957C6.569 26.925 6.551 26.892 6.535 26.86L6.511 26.812C6.496 26.782 6.482 26.751 6.468 26.72L6.443 26.663C6.43 26.634 6.419 26.604 6.406 26.575L6.381 26.511Q6.365 26.468 6.35 26.425L6.326 26.354Q6.312 26.312 6.299 26.271C6.291 26.246 6.284 26.22 6.277 26.195S6.262 26.141 6.256 26.114S6.243 26.06 6.237 26.032S6.225 25.98 6.22 25.953S6.21 25.894 6.204 25.865S6.195 25.814 6.191 25.789S6.183 25.724 6.178 25.692S6.172 25.646 6.17 25.621S6.164 25.547 6.162 25.505C6.162 25.485 6.162 25.467 6.162 25.447C6.162 25.39 6.162 25.331 6.162 25.274S6.162 25.158 6.162 25.108C6.162 25.088 6.162 25.069 6.162 25.048S6.162 24.98 6.17 24.946S6.17 24.896 6.178 24.871S6.185 24.815 6.188 24.789S6.196 24.732 6.201 24.704S6.209 24.66 6.213 24.638S6.225 24.574 6.232 24.543L6.241 24.502C6.278 24.346 6.318 24.217 6.365 24.091L6.357 24.115C6.849 22.753 8.13 21.797 9.635 21.797S12.421 22.753 12.905 24.091L12.913 24.115C12.952 24.217 12.992 24.346 13.024 24.478L13.029 24.502zM14.935 27.588C15.242 26.904 15.421 26.106 15.421 25.266C15.421 24.858 15.379 24.459 15.298 24.074L15.305 24.112H27.009L30.485 27.588zM22.373 16.001C22.373 14.081 20.817 12.525 18.897 12.525S15.421 14.081 15.421 16.001C15.421 17.921 16.977 19.477 18.897 19.477S22.373 17.921 22.373 16.001zM1.515 18.318V14.842H13.219C13.145 15.189 13.103 15.589 13.103 15.998C13.103 16.837 13.281 17.635 13.603 18.355L13.588 18.318zM13.103 6.73C13.103 4.81 11.547 3.254 9.627 3.254S6.151 4.81 6.151 6.73C6.151 8.65 7.707 10.206 9.627 10.206S13.103 8.65 13.103 6.73zM14.935 9.048C15.242 8.364 15.421 7.566 15.421 6.726C15.421 6.318 15.379 5.919 15.298 5.534L15.305 5.572H27.009L30.485 9.048z" />
    <glyph glyph-name="filter-order"
      unicode="&#xE048;"
      horiz-adv-x="32" d="M9.941 14.342L6.899 11.3V24.758H4.461V11.3L1.419 14.342L0 12.923L5.68 7.242L11.36 12.923L9.941 14.342zM11.908 10.941V7.806H24.863L26.182 10.941H11.908zM11.936 17.849V14.714H27.772L29.091 17.849H11.936zM11.963 24.757V21.622H30.68L32 24.757H11.963z" />
    <glyph glyph-name="filter"
      unicode="&#xE049;"
      horiz-adv-x="32" d="M28.754 29.391C28.754 30.105 28.193 30.666 27.491 30.666H4.509C3.82 30.666 3.246 30.092 3.246 29.391V26.84L13.449 16.637V1.333L18.55 6.434V16.637L28.753 26.84V29.391zM21.102 24.29H17.276V26.841H23.653L21.102 24.29z" />
    <glyph glyph-name="fingerprint"
      unicode="&#xE04A;"
      horiz-adv-x="32" d="M14.769 19.692V12.307C14.769 11.63 15.323 11.076 16 11.076C16.689 11.076 17.231 11.63 17.231 12.307V19.692C17.231 20.369 16.677 20.923 16 20.923C15.311 20.923 14.769 20.369 14.769 19.692zM12.308 19.692V12.307C12.308 10.264 13.957 8.615 16 8.615C18.031 8.615 19.692 10.264 19.692 12.307V19.692C19.692 21.735 18.043 23.384 16 23.384C13.969 23.384 12.308 21.735 12.308 19.692zM9.846 19.692C9.846 23.089 12.603 25.846 16 25.846S22.154 23.089 22.154 19.692V12.307C22.154 8.91 19.397 6.153 16 6.153S9.846 8.91 9.846 12.307V19.692zM27.077 13.538V12.307C27.077 6.19 22.117 1.23 16 1.23C10.646 1.23 6.191 5.021 5.145 10.067L7.385 12.307C7.385 7.544 11.237 3.692 16 3.692C20.751 3.692 24.615 7.544 24.615 12.307V15.999L27.077 13.537zM27.077 17.231V19.68C27.077 25.797 22.117 30.769 16 30.769S4.923 25.809 4.923 19.68V13.538L7.385 16V19.692C7.385 24.443 11.25 28.307 16 28.307C20.763 28.307 24.615 24.467 24.615 19.692V19.692L27.077 17.23z" />
    <glyph glyph-name="florist"
      unicode="&#xE04B;"
      horiz-adv-x="32" d="M14.552 6.092V14.609C11.746 15.36 9.678 17.92 9.678 20.96C9.678 20.972 9.678 20.985 9.678 20.997V30.782H9.9L14.06 26.622V30.782H14.282L18.442 26.622V30.782H18.664L22.824 26.585V20.997C22.824 20.985 22.824 20.972 22.824 20.96C22.824 17.858 20.682 15.262 17.79 14.572V6.412L27.045 15.692C27.045 15.692 27.747 8.48 25.47 5.058C23.525 2.129 19.033 1.403 17.778 1.267V1.255H17.655C17.52 1.243 17.458 1.23 17.458 1.23V1.242H14.541V1.217C14.541 1.217 8.793 1.623 6.529 5.045S4.954 15.679 4.954 15.679L14.554 6.091z" />
    <glyph glyph-name="fold"
      unicode="&#xE04C;"
      horiz-adv-x="32" d="M11.199 12.001L9.599 13.601L15.999 20.001L17.599 18.401L11.199 12.001zM20.801 11.999L14.401 18.399L16.001 19.999L22.401 13.599L20.801 11.999z" />
    <glyph glyph-name="forward"
      unicode="&#xE04D;"
      horiz-adv-x="32" d="M11.834 21L13.501 22.667L20.169 15.999L18.502 14.332L11.834 21zM11.831 11L18.499 17.668L20.166 16.001L13.498 9.333L11.831 11z" />
    <glyph glyph-name="fraud"
      unicode="&#xE04E;"
      horiz-adv-x="32" d="M29.538 28.923C29.538 29.588 28.984 30.154 28.307 30.154H3.692C3.003 30.154 2.461 29.6 2.461 28.923V20.308C2.461 3.077 15.999 1.846 15.999 1.846S29.537 3.077 29.537 20.308V28.923zM20.431 12.418L16.074 16.763L11.557 12.246L9.822 13.981L14.339 18.498L9.994 22.867L11.729 24.615L16.074 20.27L20.431 24.615L22.166 22.88L17.809 18.523L22.166 14.166L20.431 12.418z" />
    <glyph glyph-name="furniture"
      unicode="&#xE04F;"
      horiz-adv-x="32" d="M12.744 11.814L15.052 9.353L18.608 13.557L24.248 5.986H25.437V20.127H6.586V5.998H8.176L12.745 11.815zM9.93 18.42C10.766 18.42 11.496 17.69 11.496 16.854S10.766 15.288 9.93 15.288S8.364 16.018 8.364 16.854S8.988 18.42 9.93 18.42zM29.358 24.837H24.271L16.7 30.524C16.512 30.653 16.276 30.724 16.052 30.724C15.816 30.724 15.593 30.653 15.416 30.512L7.763 24.837H2.641C2.217 24.837 1.864 24.484 1.864 24.06V2.053C1.864 1.629 2.217 1.276 2.641 1.276H29.357C29.781 1.276 30.134 1.629 30.134 2.053V24.06C30.122 24.484 29.781 24.837 29.357 24.837zM16.053 28.287L20.727 24.837H11.296L16.053 28.287zM27.804 3.643L4.255 3.608V22.247L27.804 22.282V3.643z" />
    <glyph glyph-name="getout"
      unicode="&#xE050;"
      horiz-adv-x="32" d="M16 30.769C7.84 30.769 1.231 24.16 1.231 16S7.84 1.231 16 1.231S30.769 7.84 30.769 16S24.16 30.769 16 30.769zM18.252 8.369L16.492 10.129L21.107 14.732L6.153 14.683L8.615 17.108H21.144L16.442 21.834L18.202 23.606L25.845 15.963L18.251 8.369z" />
    <glyph glyph-name="googleplus"
      unicode="&#xE051;"
      horiz-adv-x="32" d="M16 30.72C7.865 30.72 1.28 24.135 1.28 16C1.28 7.877 7.865 1.28 16 1.28S30.72 7.865 30.72 16C30.72 24.135 24.123 30.72 16 30.72zM12.935 9.169C9.157 9.169 6.104 12.221 6.104 16S9.156 22.831 12.935 22.831C14.707 22.831 16.332 22.154 17.538 21.046L15.52 19.077C14.818 19.668 13.92 20.025 12.923 20.025C10.708 20.025 8.898 18.228 8.898 16C8.898 13.785 10.695 11.988 12.923 11.988C14.646 11.988 16.111 12.997 16.677 14.597H12.849V17.428H19.618C19.716 16.936 19.766 16.493 19.766 16C19.766 12.234 16.701 9.169 12.935 9.169zM25.28 15.458V13.12H23.557V15.458H21.095V17.181H23.557V19.643H25.28V17.181H27.618V15.458H25.28z" />
    <glyph glyph-name="googleplus2"
      unicode="&#xE052;"
      horiz-adv-x="32" d="M10.486 17.951V14.037H15.766C14.978 11.957 12.96 10.48 10.609 10.48C7.557 10.48 5.095 12.954 5.095 15.994S7.557 21.508 10.597 21.508C11.951 21.508 13.194 21.016 14.154 20.203L16.911 22.911C15.249 24.437 13.022 25.373 10.585 25.373C5.428 25.361 1.231 21.164 1.231 15.995C1.231 10.813 5.428 6.629 10.597 6.629S19.963 10.826 19.963 15.995C19.963 16.672 19.889 17.324 19.754 17.952C19.754 17.952 10.486 17.952 10.486 17.952zM27.508 17.655V20.917H25.133V17.655H21.871V15.28H25.133V12.018H27.508V15.28H30.77V17.655H27.508z" />
    <glyph glyph-name="gooplay2"
      unicode="&#xE053;"
      horiz-adv-x="32" d="M18.027 14.505L8.575 5.053L20.932 11.601zM4.808 27.723C4.734 27.588 4.697 27.428 4.697 27.255V4.757C4.697 4.055 5.349 3.588 5.977 3.723L17.399 15.145L4.808 27.723zM18.027 15.772L21.682 19.427L6.273 28.165C6.027 28.3 5.756 28.325 5.51 28.276L18.027 15.771zM26.765 16.523L22.482 18.96L18.667 15.132L21.769 12.03L26.741 14.664C27.479 15.07 27.492 16.116 26.766 16.522z" />
    <glyph glyph-name="graphics"
      unicode="&#xE054;"
      horiz-adv-x="32" d="M28.308 29.538H3.693C3.004 29.538 2.462 28.984 2.462 28.307V3.692C2.462 3.003 3.016 2.461 3.693 2.461H28.308C28.997 2.461 29.539 3.015 29.539 3.692V28.307C29.551 28.996 28.997 29.538 28.308 29.538zM11.089 6.154H6.166V11.077L11.089 16V6.154zM18.474 6.154H13.551V20.923L18.474 25.846V6.154zM25.858 6.154H20.935V16L25.858 20.923V6.154z" />
    <glyph glyph-name="hashtag"
      unicode="&#xE055;"
      horiz-adv-x="32" d="M30.154 19.692V23.384H26.019L27.693 29.538H24.001L22.327 23.384H13.712L15.386 29.538H11.694L10.02 23.384H5.54L1.848 19.692H9.011L6.993 12.307H1.848V8.615H5.983L4.309 2.461H8.001L9.675 8.615H18.29L16.616 2.461H20.308L21.982 8.615H26.462L30.154 12.307H22.991L25.009 19.692H30.154zM19.299 12.308H10.684L12.702 19.693H21.317L19.299 12.308z" />
    <glyph glyph-name="health"
      unicode="&#xE056;"
      horiz-adv-x="32" d="M16 30.769C7.84 30.769 1.231 24.16 1.231 16S7.84 1.231 16 1.231S30.769 7.84 30.769 16S24.16 30.769 16 30.769zM23.385 13.538H18.462V8.615H13.539V13.538H8.616V18.461H13.539V23.384H18.462V18.461H23.385V13.538z" />
    <glyph glyph-name="help"
      unicode="&#xE057;"
      horiz-adv-x="32" d="M16 30.769C7.84 30.769 1.231 24.16 1.231 16S7.84 1.231 16 1.231S30.769 7.84 30.769 16S24.16 30.769 16 30.769zM16 7.385C14.978 7.385 14.154 8.21 14.154 9.231S14.979 11.077 16 11.077S17.846 10.252 17.846 9.231S17.021 7.385 16 7.385zM18.769 16.049C17.107 15.077 17.132 14.671 17.132 12.627H14.72C14.671 13.181 14.646 13.599 14.646 14.116C14.646 15.679 15.508 16.59 16.578 17.254C17.587 17.894 18.043 18.349 18.043 19.359C18.043 20.184 17.428 20.762 16.332 20.762C15.126 20.762 13.907 19.913 13.194 18.965L11.409 20.823C12.517 22.226 14.215 23.383 16.627 23.383C19.396 23.383 20.922 21.795 20.922 19.617C20.922 17.697 19.95 16.774 18.768 16.048z" />
    <glyph glyph-name="hide"
      unicode="&#xE058;"
      horiz-adv-x="32" d="M20.923 16L16 11.077C18.72 11.077 20.923 13.28 20.923 16zM27.323 22.4L23.065 18.142C23.274 17.465 23.385 16.739 23.385 16C23.385 11.926 20.074 8.615 16 8.615C15.249 8.615 14.535 8.726 13.858 8.935L11.224 6.301C12.639 5.821 14.227 5.538 15.999 5.538C27.076 5.538 30.768 16.615 30.768 16.615S29.783 19.557 27.322 22.4zM18.326 17.095L27.077 25.846V29.538L23.311 25.772C21.342 26.917 18.929 27.692 16 27.692C4.923 27.692 1.231 16.615 1.231 16.615S2.696 12.233 6.523 8.984L3.692 6.153V2.461L18.326 17.095zM9.698 12.16C9.009 13.28 8.615 14.597 8.615 16C8.615 20.074 11.926 23.385 16 23.385C17.403 23.385 18.72 22.991 19.84 22.302L18.018 20.48C17.403 20.763 16.713 20.911 15.987 20.911C13.267 20.911 11.064 18.708 11.064 15.988C11.064 15.262 11.224 14.585 11.495 13.957L9.698 12.16z" />
    <glyph glyph-name="historic"
      unicode="&#xE059;"
      horiz-adv-x="32" d="M14.769 15.262V21.416L17.231 23.878V15.263zM14.338 12.431L10.855 12.419L15.495 17.059L17.23 15.324zM16 30.769C11.077 30.769 6.732 28.369 4.037 24.664L1.231 27.076V17.23L9.846 19.692L6.855 22.252C8.849 25.169 12.209 27.077 16 27.077C22.117 27.077 27.077 22.117 27.077 16S22.117 4.923 16 4.923C11.102 4.923 6.954 8.098 5.489 12.492L1.981 11.323C3.938 5.452 9.476 1.231 15.999 1.231C24.159 1.231 30.768 7.84 30.768 16S24.159 30.769 15.999 30.769z" />
    <glyph glyph-name="home"
      unicode="&#xE05A;"
      horiz-adv-x="32" d="M3.692 12.923V3.077C3.692 2.4 4.234 1.846 4.91 1.846H15.999V11.692H23.384V1.846H27.089C27.754 1.846 28.307 2.4 28.307 3.077V12.923L15.999 22.769L3.691 12.923zM11.077 8H7.385V10.462H13.539L11.077 8zM16 30.154L0 16.616L2.462 14.154L16 25.231L29.538 14.154L32 16.616L16 30.154z" />
    <glyph glyph-name="hotel"
      unicode="&#xE05B;"
      horiz-adv-x="32" d="M27.077 30.031C27.077 30.437 26.745 30.769 26.339 30.769H5.662C5.256 30.769 4.924 30.437 4.924 30.031V1.969C4.924 1.563 5.256 1.231 5.662 1.231H26.339C26.745 1.231 27.077 1.563 27.077 1.969V30.031zM13.071 7.877L12.394 7.225L12.554 6.302C12.554 6.29 12.554 6.253 12.554 6.253C12.554 6.216 12.529 6.155 12.492 6.155C12.492 6.155 12.492 6.155 12.492 6.155C12.48 6.155 12.467 6.192 12.467 6.192L11.63 6.647L10.793 6.216C10.768 6.204 10.744 6.216 10.719 6.228S10.694 6.265 10.694 6.29L10.854 7.213L10.177 7.865C10.165 7.877 10.152 7.902 10.165 7.927S10.19 7.964 10.214 7.976L11.149 8.111L11.567 8.96C11.579 8.985 11.604 8.997 11.629 8.997S11.678 8.985 11.691 8.96L12.109 8.111L13.044 7.976C13.069 7.976 13.093 7.951 13.093 7.927C13.093 7.915 13.093 7.89 13.068 7.878zM17.354 7.877L16.677 7.225L16.837 6.302C16.837 6.29 16.837 6.253 16.837 6.253C16.837 6.216 16.812 6.155 16.775 6.155C16.775 6.155 16.775 6.155 16.775 6.155C16.763 6.155 16.75 6.192 16.75 6.192L15.913 6.647L15.076 6.216C15.051 6.204 15.027 6.216 15.002 6.228S14.977 6.265 14.977 6.29L15.137 7.213L14.46 7.865C14.448 7.877 14.435 7.902 14.448 7.927S14.473 7.964 14.497 7.976L15.432 8.111L15.85 8.96C15.862 8.985 15.887 8.997 15.912 8.997S15.961 8.985 15.974 8.96L16.392 8.111L17.327 7.976C17.352 7.976 17.376 7.951 17.376 7.927C17.376 7.915 17.376 7.89 17.351 7.878zM14.154 16.123V11.077H10.462V24.615H14.154V19.692H17.846V24.615H21.538V11.077H17.846V16.123H14.154zM21.686 7.877L21.009 7.225L21.169 6.302C21.169 6.29 21.169 6.253 21.169 6.253C21.169 6.216 21.144 6.155 21.107 6.155C21.107 6.155 21.107 6.155 21.107 6.155C21.095 6.155 21.082 6.192 21.082 6.192L20.245 6.647L19.408 6.216C19.383 6.204 19.359 6.216 19.334 6.228S19.309 6.265 19.309 6.29L19.469 7.213L18.792 7.865C18.78 7.877 18.767 7.902 18.78 7.927S18.805 7.964 18.829 7.976L19.764 8.111L20.182 8.96C20.194 8.985 20.219 8.997 20.244 8.997S20.293 8.985 20.306 8.96L20.724 8.111L21.659 7.976C21.684 7.976 21.708 7.951 21.708 7.927C21.708 7.915 21.708 7.89 21.683 7.878z" />
    <glyph glyph-name="idcard"
      unicode="&#xE05C;"
      horiz-adv-x="32" d="M29.563 27.071H2.486C1.809 27.071 1.231 26.529 1.231 25.853V6.148C1.231 5.471 1.809 4.93 2.486 4.93H29.563C30.24 4.93 30.769 5.472 30.769 6.148V25.853C30.769 26.53 30.252 27.071 29.563 27.071zM11.631 23.378C13.489 23.378 14.991 21.876 14.991 20.018S13.489 16.658 11.631 16.658S8.271 18.16 8.271 20.018C8.283 21.876 9.785 23.378 11.631 23.378zM18.338 8.609H4.923V9.951C4.923 12.794 6.88 15.182 9.526 15.822C10.166 15.502 10.88 15.317 11.631 15.317C12.394 15.317 13.096 15.502 13.736 15.822C16.382 15.182 18.339 12.794 18.339 9.951V8.609zM24.64 14.763H19.692V17.225H27.101L24.639 14.763zM24.64 19.686H19.692V22.148H27.101L24.639 19.686z" />
    <glyph glyph-name="info-circle"
      unicode="&#xE05D;"
      horiz-adv-x="32" d="M16 20.923C14.978 20.923 14.154 21.748 14.154 22.769S14.979 24.615 16 24.615C17.022 24.615 17.846 23.79 17.846 22.769S17.021 20.923 16 20.923zM14.769 18.462H17.231V7.385L14.769 9.847V18.462zM16 1.231C24.16 1.231 30.769 7.84 30.769 16S24.16 30.769 16 30.769S1.231 24.16 1.231 16S7.84 1.231 16 1.231z" />
    <glyph glyph-name="info"
      unicode="&#xE05E;"
      horiz-adv-x="32" d="M18.231 12.654H13.77V30.5L18.231 26.039V12.654zM16 8.192C14.152 8.192 12.654 6.694 12.654 4.846S14.152 1.5 16 1.5C17.848 1.5 19.346 2.998 19.346 4.846S17.848 8.192 16 8.192z" />
    <glyph glyph-name="instagram"
      unicode="&#xE05F;"
      horiz-adv-x="32" d="M19.077 16C19.077 14.301 17.699 12.923 16 12.923S12.923 14.301 12.923 16C12.923 17.699 14.301 19.077 16 19.077S19.077 17.699 19.077 16zM23.2 21.44C23.028 21.871 22.831 22.178 22.511 22.498S21.883 23.015 21.453 23.187C21.133 23.31 20.641 23.458 19.742 23.507C18.77 23.556 18.474 23.556 16.013 23.556S13.256 23.544 12.284 23.507C11.386 23.47 10.893 23.31 10.573 23.187C10.142 23.015 9.835 22.818 9.515 22.498S8.998 21.87 8.826 21.44C8.703 21.12 8.555 20.628 8.506 19.729C8.457 18.757 8.457 18.461 8.457 16S8.469 13.243 8.506 12.271C8.543 11.373 8.703 10.88 8.826 10.56C8.998 10.129 9.195 9.822 9.515 9.502S10.143 8.985 10.573 8.813C10.893 8.69 11.385 8.542 12.284 8.493C13.256 8.444 13.552 8.444 16.013 8.444S18.77 8.456 19.742 8.493C20.64 8.53 21.133 8.69 21.453 8.813C21.884 8.985 22.191 9.182 22.511 9.502S23.04 10.13 23.2 10.56C23.323 10.88 23.471 11.372 23.52 12.271C23.569 13.243 23.569 13.539 23.569 16S23.557 18.757 23.52 19.729C23.471 20.627 23.323 21.12 23.2 21.44zM16 11.249C13.378 11.249 11.262 13.366 11.262 15.987S13.379 20.725 16 20.725C18.622 20.725 20.738 18.608 20.738 15.987C20.738 13.378 18.621 11.249 16 11.249zM20.935 19.815C20.32 19.815 19.827 20.307 19.827 20.923S20.319 22.031 20.935 22.031C21.55 22.031 22.043 21.539 22.043 20.923S21.538 19.815 20.935 19.815zM16 30.769C7.84 30.769 1.231 24.16 1.231 16S7.84 1.231 16 1.231C24.16 1.231 30.769 7.84 30.769 16C30.769 24.148 24.16 30.769 16 30.769zM25.182 12.185C25.133 11.2 24.985 10.536 24.751 9.945C24.517 9.342 24.197 8.825 23.68 8.308S22.646 7.483 22.043 7.237C21.452 7.003 20.788 6.855 19.803 6.806S18.498 6.744 16 6.744C13.489 6.744 13.182 6.756 12.197 6.806S10.548 7.003 9.957 7.237C9.354 7.471 8.837 7.791 8.32 8.308S7.495 9.342 7.249 9.945C7.015 10.536 6.867 11.2 6.818 12.185S6.756 13.49 6.756 15.988C6.756 18.499 6.768 18.806 6.818 19.791S7.015 21.44 7.249 22.031C7.483 22.634 7.803 23.151 8.32 23.668S9.354 24.493 9.957 24.739C10.548 24.973 11.212 25.121 12.197 25.17S13.502 25.232 16 25.232C18.511 25.232 18.818 25.22 19.803 25.17S21.452 24.973 22.043 24.739C22.646 24.505 23.163 24.185 23.68 23.668S24.505 22.634 24.751 22.031C24.985 21.44 25.133 20.776 25.182 19.791S25.244 18.486 25.244 15.988C25.232 13.49 25.219 13.17 25.182 12.185z" />
    <glyph glyph-name="instagram2"
      unicode="&#xE060;"
      horiz-adv-x="32" d="M16.015 23.539C11.846 23.539 8.469 20.162 8.469 15.993S11.846 8.447 16.015 8.447C20.184 8.447 23.561 11.824 23.561 15.993S20.184 23.539 16.015 23.539zM16.015 11.104C13.314 11.104 11.126 13.291 11.126 15.993S13.313 20.882 16.015 20.882C18.716 20.882 20.904 18.695 20.904 15.993S18.717 11.104 16.015 11.104zM25.616 23.833C25.616 22.864 24.823 22.071 23.854 22.071S22.092 22.864 22.092 23.833C22.092 24.802 22.885 25.595 23.854 25.595S25.616 24.802 25.616 23.833zM16.015 28.031C19.935 28.031 20.405 28.016 21.946 27.943C23.37 27.884 24.148 27.635 24.677 27.444C25.367 27.18 25.852 26.857 26.365 26.343S27.202 25.345 27.466 24.655C27.672 24.141 27.906 23.363 27.965 21.924C28.038 20.383 28.053 19.913 28.053 15.993S28.038 11.603 27.965 10.062C27.906 8.623 27.657 7.86 27.466 7.331C27.202 6.641 26.879 6.156 26.365 5.643S25.367 4.806 24.677 4.542C24.163 4.336 23.385 4.102 21.946 4.043C20.405 3.97 19.935 3.955 16.015 3.955S11.625 3.97 10.084 4.043C8.66 4.102 7.882 4.351 7.353 4.542C6.663 4.806 6.178 5.129 5.665 5.643S4.843 6.656 4.564 7.331C4.358 7.845 4.124 8.623 4.065 10.062C3.992 11.603 3.977 12.073 3.977 15.993S3.992 20.383 4.065 21.924C4.124 23.348 4.373 24.126 4.564 24.655C4.828 25.345 5.151 25.83 5.665 26.343S6.678 27.165 7.353 27.444C7.867 27.65 8.645 27.884 10.084 27.943C11.625 28.016 12.095 28.031 16.015 28.031zM16.015 30.674C12.022 30.674 11.523 30.659 9.966 30.586S7.338 30.263 6.398 29.911C5.429 29.529 4.607 29.03 3.799 28.223C2.977 27.401 2.478 26.593 2.111 25.624C1.744 24.684 1.494 23.627 1.436 22.056C1.348 20.485 1.333 19.986 1.333 15.993S1.348 11.501 1.421 9.944C1.494 8.388 1.744 7.316 2.096 6.376C2.478 5.407 2.977 4.585 3.784 3.777C4.606 2.955 5.414 2.456 6.383 2.089C7.323 1.722 8.38 1.472 9.951 1.414C11.522 1.341 12.021 1.326 16 1.326C19.993 1.326 20.492 1.341 22.049 1.414S24.677 1.737 25.617 2.089C26.586 2.471 27.408 2.97 28.216 3.777C29.038 4.599 29.537 5.407 29.904 6.376C30.271 7.316 30.521 8.373 30.579 9.944C30.652 11.515 30.667 12.014 30.667 15.993C30.667 19.986 30.652 20.485 30.579 22.042S30.256 24.67 29.904 25.61C29.522 26.579 29.023 27.401 28.216 28.209C27.394 29.031 26.586 29.53 25.617 29.897C24.677 30.264 23.62 30.514 22.049 30.572C20.508 30.66 20.008 30.675 16.015 30.675z" />
    <glyph glyph-name="insurance"
      unicode="&#xE061;"
      horiz-adv-x="32" d="M7.385 16C7.385 17.748 7.902 19.372 8.8 20.738L4.394 25.144C2.412 22.621 1.231 19.446 1.231 15.999S2.413 9.377 4.394 6.854L8.8 11.26C7.902 12.626 7.385 14.251 7.385 15.998zM27.606 25.145L23.2 20.739C24.098 19.385 24.615 17.748 24.615 16.001S24.098 12.629 23.2 11.263L27.606 6.857C29.588 9.38 30.769 12.555 30.769 16.002S29.587 22.624 27.606 25.147zM16 24.615C17.748 24.615 19.372 24.098 20.738 23.2L25.144 27.606C22.621 29.588 19.446 30.769 15.999 30.769S9.377 29.587 6.854 27.606L11.26 23.2C12.626 24.098 14.251 24.615 15.998 24.615zM16 7.385C14.252 7.385 12.628 7.902 11.262 8.8L6.856 4.394C9.379 2.412 12.554 1.231 16.001 1.231S22.623 2.413 25.146 4.394L20.74 8.8C19.374 7.902 17.749 7.385 16.002 7.385z" />
    <glyph glyph-name="interactivity"
      unicode="&#xE062;"
      horiz-adv-x="32" d="M16 30.769C7.84 30.769 1.231 24.16 1.231 16S7.84 1.231 16 1.231S30.769 7.84 30.769 16S24.16 30.769 16 30.769zM16 3.692C9.206 3.692 3.692 9.206 3.692 16S9.206 28.308 16 28.308S28.308 22.794 28.308 16S22.806 3.692 16 3.692zM16 24.615C11.237 24.615 7.385 20.763 7.385 16S11.237 7.385 16 7.385S24.615 11.237 24.615 16C24.615 20.763 20.763 24.615 16 24.615zM16 9.846C12.603 9.846 9.846 12.603 9.846 16S12.603 22.154 16 22.154S22.154 19.397 22.154 16S19.397 9.846 16 9.846z" />
    <glyph glyph-name="international"
      unicode="&#xE063;"
      horiz-adv-x="32" d="M16 30.769C7.84 30.769 1.231 24.16 1.231 16S7.84 1.231 16 1.231S30.769 7.84 30.769 16S24.16 30.769 16 30.769zM3.668 16C3.668 17.883 4.111 19.668 4.862 21.255L11.077 13.624V13.538H13.539V8.123H15.016V3.729C8.739 4.197 3.668 9.514 3.668 16zM18.092 3.877V8.123H22.154V14.277H17.231V18.462H11.077V20.924H14.769V24.616H18.461V28.062C24.073 26.917 28.283 21.957 28.283 16C28.283 9.932 23.877 4.898 18.092 3.877z" />
    <glyph glyph-name="investment"
      unicode="&#xE064;"
      horiz-adv-x="32" d="M28.308 29.538H3.693C3.004 29.538 2.462 28.984 2.462 28.307V14.769L8.616 20.923L14.77 14.769L20.924 20.923L18.462 23.385H25.847V16L23.385 18.462L14.77 9.847L8.616 16.001L2.462 9.847V3.693C2.462 3.004 3.016 2.462 3.693 2.462H28.308C28.997 2.462 29.539 3.016 29.539 3.693V28.308C29.539 28.997 28.985 29.539 28.308 29.539z" />
    <glyph glyph-name="jewel"
      unicode="&#xE065;"
      horiz-adv-x="32" d="M2.745 22.769L1.231 17.846L16.062 3.077L30.77 17.846L27.09 28.923H4.998L3.472 25.231H16.014L13.552 22.769H2.746z" />
    <glyph glyph-name="language"
      unicode="&#xE066;"
      horiz-adv-x="32" d="M20.923 27.077L18.461 29.539H3.692V2.462H7.384V13.416H16.086L18.461 10.954H28.307V27.077H20.922zM7.385 16V25.846L17.231 16H7.385z" />
    <glyph glyph-name="limits"
      unicode="&#xE067;"
      horiz-adv-x="32" d="M28 4.308C29.748 6.733 30.769 9.711 30.769 12.923C30.769 21.083 24.16 27.692 16 27.692S1.231 21.083 1.231 12.923C1.231 9.711 2.265 6.732 4 4.308H28zM18.462 10.462C18.462 9.108 17.354 8 16 8S13.538 9.108 13.538 10.462S14.646 12.924 16 12.924C16.074 12.924 16.16 12.924 16.234 12.912L22.154 17.847L23.385 16.616L18.45 10.696C18.462 10.622 18.462 10.536 18.462 10.462zM27.077 15.385C27.754 15.385 28.308 14.831 28.308 14.154S27.754 12.923 27.077 12.923S25.846 13.477 25.846 14.154S26.4 15.385 27.077 15.385zM27.077 8C27.077 7.323 26.523 6.769 25.846 6.769S24.615 7.323 24.615 8S25.169 9.231 25.846 9.231S27.077 8.677 27.077 8zM16 25.231C19.717 25.231 23.04 23.582 25.292 20.985L23.544 19.237C21.747 21.403 19.027 22.769 15.999 22.769C10.559 22.769 6.153 18.363 6.153 12.923C6.153 10.597 6.965 8.455 8.307 6.769H5.341C4.295 8.578 3.692 10.683 3.692 12.923C3.692 19.717 9.206 25.231 16 25.231z" />
    <glyph glyph-name="link"
      unicode="&#xE068;"
      horiz-adv-x="32" d="M8.621 14.16H19.698L23.39 17.852H12.313L8.621 14.16zM4.929 16.006C4.929 19.071 7.403 21.544 10.467 21.544H17.236L20.928 25.236H10.466C5.383 25.236 1.235 21.101 1.235 16.005C1.235 11.845 3.992 8.325 7.783 7.168L11.081 10.466H10.466C7.401 10.466 4.928 12.952 4.928 16.004zM25.126 24.511L22.123 21.508C24.905 21.213 27.071 18.862 27.071 15.994C27.071 12.929 24.597 10.456 21.533 10.456H15.995L12.303 6.764H21.534C26.617 6.764 30.765 10.899 30.765 15.995C30.777 19.823 28.451 23.109 25.128 24.512z" />
    <glyph glyph-name="linkedin"
      unicode="&#xE069;"
      horiz-adv-x="32" d="M16 30.72C7.877 30.72 1.28 24.135 1.28 16S7.877 1.28 16 1.28C24.123 1.28 30.72 7.865 30.72 16S24.135 30.72 16 30.72zM12.258 9.895H8.812V20.11H12.258V9.895zM10.523 21.489C9.44 21.489 8.566 22.289 8.566 23.261C8.566 24.246 9.44 25.033 10.523 25.033S12.48 24.233 12.48 23.261C12.48 22.276 11.606 21.489 10.523 21.489zM24.566 9.895H21.12V15.433C21.12 16.565 20.628 17.685 19.311 17.685S17.305 16.553 17.305 15.408V9.894H13.982V20.109H17.305V18.644C18.29 19.826 19.139 20.355 20.603 20.355C22.055 20.355 24.566 19.629 24.566 15.653V9.893z" />
    <glyph glyph-name="linkedin2"
      unicode="&#xE06A;"
      horiz-adv-x="32" d="M4.135 4.548H9.452V19.982H4.135V4.548zM22.166 20.363C19.951 20.363 18.597 19.551 17.194 17.754V19.982H12V4.548H17.182V12.843C17.182 14.591 18.154 16.301 20.16 16.301C22.154 16.301 22.843 14.59 22.843 12.879V4.534H28.16V13.211C28.16 19.254 24.369 20.362 22.166 20.362zM6.818 27.465C5.169 27.465 3.84 26.259 3.84 24.77S5.169 22.075 6.818 22.075C8.467 22.075 9.796 23.281 9.796 24.77S8.454 27.465 6.818 27.465z" />
    <glyph glyph-name="listview"
      unicode="&#xE06B;"
      horiz-adv-x="32" d="M5.6 22.08V25.846H1.846V22.08H5.6zM5.6 14.142V17.908H1.846V14.142H5.6zM5.6 6.154V9.92H1.846V6.154H5.6zM26.462 22.154H9.28V25.846H30.154zM22.769 14.154H9.28V17.846H26.462zM26.462 6.154H9.28V9.846H30.154z" />
    <glyph glyph-name="loan"
      unicode="&#xE06C;"
      horiz-adv-x="32" d="M13.45 14.398L10.223 14.387L14.51 18.674L16.112 17.072zM13.845 17.015V22.701L16.113 24.98V17.015zM23.333 16C19.283 16 16 12.717 16 8.667S19.283 1.334 23.333 1.334S30.666 4.617 30.666 8.667S27.383 16 23.333 16zM24.123 5.158V3.815H24.033L22.882 4.413V5.079C22.318 5.124 21.833 5.271 21.382 5.508L21.337 5.542L21.303 5.565L21.314 5.61L21.325 5.678L21.46 6.592L21.483 6.75L21.494 6.852L21.584 6.796L21.719 6.706C22.238 6.368 22.813 6.176 23.344 6.176C23.964 6.176 24.348 6.492 24.348 7S24.145 7.711 23.197 8.14C21.821 8.772 21.369 9.246 21.369 10.205C21.369 11.153 21.989 11.841 22.892 12.044V13.285H23.016L24.133 12.71V12.067C24.584 12.011 24.833 11.898 25.148 11.717L25.204 11.683L25.238 11.66L25.227 11.615L25.216 11.547L25.069 10.656L25.046 10.487L25.023 10.374L24.797 10.543C24.425 10.825 23.962 10.994 23.522 10.994C22.935 10.994 22.608 10.723 22.608 10.283C22.608 9.866 22.811 9.663 23.759 9.245C25.147 8.613 25.575 8.117 25.575 7.09C25.575 6.12 25.022 5.42 24.12 5.161zM14.105 6.06C8.34 6.455 3.782 11.261 3.782 17.128C3.782 23.254 8.746 28.218 14.872 28.218C20.739 28.218 25.545 23.66 25.94 17.895C26.82 17.647 27.644 17.275 28.411 16.801C28.411 16.914 28.411 17.015 28.411 17.128C28.411 24.608 22.353 30.666 14.873 30.666S1.335 24.608 1.335 17.128S7.393 3.59 14.873 3.59C14.986 3.59 15.087 3.59 15.2 3.59C14.726 4.357 14.354 5.181 14.106 6.061z" />
    <glyph glyph-name="lock"
      unicode="&#xE06D;"
      horiz-adv-x="32" d="M11.083 11.083H20.929L18.467 8.621H11.082V11.083zM22.16 18.468H9.852V22.173C9.852 25.57 12.609 28.315 16.006 28.315S22.16 25.558 22.16 22.173V18.468zM24.622 18.468V22.173C24.622 26.924 20.77 30.776 16.007 30.776C11.256 30.776 7.392 26.924 7.392 22.173V18.468H6.149C5.472 18.468 4.931 17.914 4.931 17.225V2.468C4.931 1.779 5.473 1.225 6.149 1.225H25.854C26.531 1.225 27.072 1.779 27.072 2.468V17.225C27.072 17.914 26.53 18.468 25.854 18.468H24.623z" />
    <glyph glyph-name="mapa"
      unicode="&#xE06E;"
      horiz-adv-x="32" d="M28.578 29.268L20.923 27.077L11.077 29.539L3.003 27.237C2.683 27.151 2.461 26.855 2.461 26.511V3.606C2.461 3.064 3.015 2.708 3.507 2.917L11.076 6.154L20.922 2.462L29.082 5.957C29.365 6.08 29.537 6.351 29.537 6.646V28.541C29.537 29.033 29.057 29.403 28.577 29.267zM20.923 4.923L11.077 8.615V27.077L20.923 24.615V4.923z" />
    <glyph glyph-name="menu"
      unicode="&#xE06F;"
      horiz-adv-x="32" d="M26.513 22.57H1.545V26.512H30.455zM22.57 14.029H1.544V17.971H26.512zM18.628 5.487H1.545V9.429H22.571z" />
    <glyph glyph-name="microphone"
      unicode="&#xE070;"
      horiz-adv-x="32" d="M14.811 15.411H10.195C10.748 12.726 13.139 10.701 16 10.701C19.261 10.701 21.922 13.338 21.922 16.6V24.819C21.922 28.08 19.273 30.718 16 30.718C12.739 30.718 10.078 28.081 10.078 24.819V22.476H17.19L14.823 20.121H10.078V17.766H17.19L14.812 15.411zM26.597 15.411H24.207C23.63 11.42 20.168 8.346 16 8.346C11.82 8.346 8.37 11.419 7.793 15.411H5.403C5.956 10.501 9.877 6.604 14.811 6.062V3.637H8.889V1.282H23.112V3.637H17.19V6.062C22.123 6.604 26.044 10.501 26.598 15.411z" />
    <glyph glyph-name="mobile-26"
      unicode="&#xE071;"
      horiz-adv-x="32" d="M14.769 3.692C14.769 3.003 15.323 2.461 16 2.461C16.689 2.461 17.231 3.015 17.231 3.692C17.231 4.381 16.677 4.923 16 4.923C15.311 4.923 14.769 4.369 14.769 3.692zM8.615 28.308V6.154H23.384V28.308H8.615zM6.154 29.538C6.154 30.215 6.696 30.769 7.385 30.769H24.616C25.293 30.769 25.847 30.215 25.847 29.538V2.461C25.847 1.784 25.305 1.23 24.616 1.23H7.385C6.708 1.23 6.154 1.784 6.154 2.461V29.538zM20.923 20.923L11.077 11.077V25.846H20.923z" />
    <glyph glyph-name="mobile-28"
      unicode="&#xE072;"
      horiz-adv-x="32" d="M14.769 3.692C14.769 3.003 15.323 2.461 16 2.461C16.689 2.461 17.231 3.015 17.231 3.692C17.231 4.381 16.677 4.923 16 4.923C15.311 4.923 14.769 4.369 14.769 3.692zM7.385 27.077V6.154H24.616V27.077H7.385zM4.923 29.538C4.923 30.215 5.465 30.769 6.154 30.769H25.846C26.523 30.769 27.077 30.215 27.077 29.538V2.461C27.077 1.784 26.535 1.23 25.846 1.23H6.154C5.477 1.23 4.923 1.784 4.923 2.461V29.538zM22.154 22.154L9.846 9.846V24.615H22.154z" />
    <glyph glyph-name="mobiledisconnected"
      unicode="&#xE073;"
      horiz-adv-x="32" d="M25.42 28.363V28.387C25.42 29.035 24.89 29.541 24.243 29.541H7.759C7.1 29.541 6.582 29.046 6.582 28.387V9.524L4.227 7.169V3.637L27.776 27.186V30.718L25.421 28.363zM8.935 11.879V27.186H23.064V26.009L8.935 11.88zM23.065 5.992H10.137L6.581 2.436C6.593 1.8 7.111 1.282 7.758 1.282H24.242C24.901 1.282 25.419 1.835 25.419 2.483V21.298L23.064 18.943V5.991zM16 2.483C15.352 2.483 14.823 3.001 14.823 3.66C14.823 4.308 15.341 4.837 16 4.837C16.648 4.837 17.177 4.319 17.177 3.66C17.177 3.012 16.659 2.483 16 2.483z" />
    <glyph glyph-name="mobilepayment"
      unicode="&#xE074;"
      horiz-adv-x="32" d="M24.615 30.769H7.384C6.695 30.769 6.153 30.215 6.153 29.538V2.461C6.153 1.784 6.707 1.23 7.384 1.23H24.615C25.304 1.23 25.846 1.784 25.846 2.461V29.538C25.846 30.215 25.292 30.769 24.615 30.769zM16 2.462C15.323 2.462 14.769 3.004 14.769 3.693C14.769 4.37 15.311 4.924 16 4.924C16.677 4.924 17.231 4.382 17.231 3.693C17.231 3.016 16.689 2.462 16 2.462zM23.385 6.154H8.616V28.308H23.385V6.154zM15.902 12.96C14.671 12.96 13.391 13.428 12.357 14.018L12 11.913C12.812 11.531 13.735 11.261 14.769 11.138V9.846L17.231 8.615V11.224C18.88 11.618 20 12.775 20 14.646S19.077 17.366 16.542 18.375C14.831 19.077 14.437 19.433 14.437 20.209C14.437 20.935 14.954 21.501 16.135 21.501C17.095 21.501 18.153 21.132 19.04 20.566L19.397 22.658C18.757 22.978 18.08 23.224 17.231 23.323V24.615L14.769 25.846V23.212C13.206 22.806 12.172 21.686 12.172 20.012C12.172 18.141 13.132 17.378 15.52 16.418C17.305 15.667 17.735 15.298 17.735 14.412C17.735 13.464 16.984 12.96 15.901 12.96z" />
    <glyph glyph-name="more"
      unicode="&#xE075;"
      horiz-adv-x="32" d="M6.769 19.077C5.071 19.077 3.692 17.699 3.692 16S5.07 12.923 6.769 12.923S9.846 14.301 9.846 16S8.468 19.077 6.769 19.077zM16 19.077C14.302 19.077 12.923 17.699 12.923 16S14.301 12.923 16 12.923S19.077 14.301 19.077 16S17.699 19.077 16 19.077zM25.231 19.077C23.533 19.077 22.154 17.699 22.154 16S23.532 12.923 25.231 12.923C26.929 12.923 28.308 14.301 28.308 16S26.93 19.077 25.231 19.077z" />
    <glyph glyph-name="mortaje"
      unicode="&#xE076;"
      horiz-adv-x="32" d="M4.272 13.068V3.686C4.272 3.041 4.788 2.513 5.433 2.513H16V11.895H23.037V2.513H26.567C27.2 2.513 27.728 3.041 27.728 3.686V13.068L16 22.45L4.272 13.068zM11.309 8.377H7.791V10.723H13.655L11.309 8.377zM16 29.487L0.754 16.586L3.1 14.24L16.001 24.795L28.902 14.24L31.248 16.586L16.002 29.487z" />
    <glyph glyph-name="mylocation"
      unicode="&#xE077;"
      horiz-adv-x="32" d="M16 20.923C13.28 20.923 11.077 18.72 11.077 16S13.28 11.077 16 11.077C18.72 11.077 20.923 13.28 20.923 16S18.72 20.923 16 20.923zM28 17.231C27.385 22.893 22.892 27.373 17.231 27.988V30.77H14.769V27.988C9.107 27.373 4.627 22.893 4.012 17.231H1.23V14.769H4.012C4.627 9.107 9.107 4.615 14.769 4V1.231H17.231V4C22.893 4.615 27.385 9.108 28 14.769H30.769V17.231H28zM16 6.597C10.806 6.597 6.609 10.794 6.609 15.988S10.806 25.391 16 25.391S25.391 21.194 25.391 16S21.194 6.597 16 6.597z" />
    <glyph glyph-name="myprofile"
      unicode="&#xE078;"
      horiz-adv-x="32" d="M19.865 15.692C18.708 15.114 17.391 14.781 16 14.781S13.305 15.113 12.135 15.692C7.286 14.51 3.692 10.141 3.692 4.923V2.461H28.307V4.923C28.307 10.141 24.713 14.511 19.864 15.692zM19.692 6.154H16V8.616H22.154L19.692 6.154zM16 17.231C19.397 17.231 22.154 19.988 22.154 23.385S19.397 29.539 16 29.539S9.846 26.782 9.846 23.385C9.846 19.988 12.603 17.231 16 17.231z" />
    <glyph glyph-name="navigation"
      unicode="&#xE079;"
      horiz-adv-x="32" d="M30.769 17.231V27.077L27.963 24.665C25.268 28.37 20.923 30.77 16 30.77C7.84 30.77 1.231 24.161 1.231 16.001S7.84 1.232 16 1.232C22.523 1.232 28.062 5.466 30.018 11.324L26.51 12.493C25.045 8.099 20.898 4.924 15.999 4.924C9.882 4.924 4.922 9.884 4.922 16.001S9.882 27.078 15.999 27.078C19.802 27.078 23.15 25.17 25.144 22.253L22.153 19.693L30.768 17.231z" />
    <glyph glyph-name="nearme"
      unicode="&#xE07A;"
      horiz-adv-x="32" d="M28.941 30.116L2.393 19.691C2.048 19.556 1.827 19.223 1.827 18.854V18.325C1.827 17.956 2.061 17.623 2.405 17.488L12.916 13.426C13.15 13.34 13.347 13.143 13.433 12.909L17.495 2.398C17.63 2.053 17.963 1.82 18.332 1.82H18.861C19.23 1.82 19.563 2.042 19.698 2.386L30.11 28.946C30.393 29.672 29.679 30.398 28.941 30.115zM18.59 8.159L15.895 16.073L25.47 25.648L18.59 8.159z" />
    <glyph glyph-name="nfcconnect"
      unicode="&#xE07B;"
      horiz-adv-x="32" d="M20.652 30.769L17.674 28.492C21.108 25.575 23.397 21.058 23.397 16S21.12 6.425 17.674 3.508L20.652 1.231C24.554 4.825 27.077 10.105 27.077 16S24.554 27.175 20.652 30.769zM14.351 25.969L11.213 23.569C13.404 21.772 14.795 19.052 14.795 16S13.404 10.228 11.213 8.431L14.351 6.031C16.849 8.493 18.474 12.049 18.474 16S16.849 23.508 14.351 25.969zM7.569 20.788L4.923 18.782C5.698 18.105 6.191 17.12 6.191 16S5.699 13.895 4.923 13.218L7.569 11.2C8.984 12.32 9.883 14.055 9.883 15.988S8.972 19.668 7.569 20.788z" />
    <glyph glyph-name="nfcdisconnect"
      unicode="&#xE07C;"
      horiz-adv-x="32" d="M11.865 7.559L13.712 6.147C15.689 7.982 17.147 10.512 17.7 13.394L11.865 7.559zM4.641 13.076L7.159 11.147C8.7 12.206 9.7 13.982 9.7 15.994S8.688 19.782 7.159 20.841L4.641 18.912C5.57 18.277 6.182 17.206 6.182 15.994S5.57 13.712 4.641 13.076zM22.5 18.194C22.594 17.476 22.653 16.735 22.653 15.994C22.653 10.97 20.324 6.523 16.865 3.735L19.736 1.547C23.63 4.994 26.183 10.183 26.183 15.994C26.183 17.794 25.936 19.535 25.489 21.182L22.501 18.194zM23.359 26.112C22.359 27.747 21.135 29.218 19.735 30.453L16.864 28.265C18.44 26.983 19.77 25.371 20.77 23.524L17.323 20.077C16.617 22.336 15.335 24.324 13.711 25.842L10.664 23.513C12.664 22.007 14.041 19.713 14.346 17.101L5.005 7.76V4.231L27.359 26.585V30.115L23.359 26.115z" />
    <glyph glyph-name="on"
      unicode="&#xE07D;"
      horiz-adv-x="32" d="M23.84 23.815C25.846 21.821 27.077 19.052 27.077 16C27.077 9.883 22.117 4.923 16 4.923S4.923 9.883 4.923 16C4.923 19.04 6.141 21.797 8.135 23.791L5.513 26.4C2.867 23.729 1.23 20.062 1.23 16C1.23 7.84 7.839 1.231 15.999 1.231S30.768 7.84 30.768 16C30.768 20.074 29.119 23.754 26.46 26.425L23.838 23.816zM14.154 30.769V17.895L17.6 21.378V30.769z" />
    <glyph glyph-name="order"
      unicode="&#xE07E;"
      horiz-adv-x="32" d="M2.462 25.846H29.554V22.154H2.462V25.846zM2.462 17.846H29.554V14.154H2.462V17.846zM2.462 9.846H29.554V6.154H2.462V9.846z" />
    <glyph glyph-name="pause"
      unicode="&#xE07F;"
      horiz-adv-x="32" d="M16 30.769C7.852 30.769 1.231 24.147 1.231 16S7.853 1.231 16 1.231S30.769 7.853 30.769 16S24.147 30.769 16 30.769zM16 3.692C9.206 3.692 3.692 9.206 3.692 16S9.206 28.308 16 28.308S28.308 22.794 28.308 16S22.794 3.692 16 3.692zM11.077 22.154H14.769V9.846H11.077V22.154zM17.231 22.154H20.923V9.846H17.231V22.154z" />
    <glyph glyph-name="pdf"
      unicode="&#xE080;"
      horiz-adv-x="32" d="M19.692 30.775H5.71C5.279 30.775 4.922 30.43 4.922 30V2C4.922 1.569 5.279 1.225 5.71 1.225H26.288C26.719 1.225 27.076 1.57 27.076 2V23.391L19.691 30.776zM9.834 14.406H9.108V12.314H7.385V18.837H9.834C11.237 18.837 12.665 18.566 12.665 16.622C12.677 14.677 11.127 14.407 9.834 14.407zM15.606 12.314H13.415V18.837H15.606C17.551 18.837 19.212 18.111 19.212 15.625C19.212 13.04 17.526 12.314 15.606 12.314zM24.615 17.36H21.907V16.129H23.753V14.652H21.907V12.314H20.061V18.837H24.615V17.36zM9.908 17.483H9.108V15.76H9.908C10.733 15.76 10.954 16.129 10.954 16.622S10.72 17.484 9.908 17.484zM15.692 17.36H15.261V13.791H15.704C17.046 13.791 17.439 14.296 17.439 15.625C17.439 16.843 17.033 17.36 15.691 17.36z" />
    <glyph glyph-name="pets"
      unicode="&#xE081;"
      horiz-adv-x="32" d="M5.526 14.326C7.212 14.326 8.591 16.209 8.591 18.535S7.213 22.732 5.526 22.732C3.828 22.732 2.461 20.849 2.461 18.523S3.827 14.326 5.526 14.326V14.326zM11.582 21.132C13.268 21.132 14.647 23.015 14.647 25.341S13.269 29.538 11.582 29.538S8.517 27.655 8.517 25.329S9.895 21.132 11.582 21.132V21.132zM26.474 14.326C28.16 14.326 29.539 16.209 29.539 18.535S28.173 22.744 26.474 22.744S23.409 20.861 23.409 18.535S24.787 14.326 26.474 14.326V14.326zM20.295 21.132C21.981 21.132 23.36 23.015 23.36 25.341S21.982 29.538 20.295 29.538C18.597 29.538 17.23 27.655 17.23 25.329S18.596 21.132 20.295 21.132V21.132zM15.988 3.742C21.65 3.742 26.228 -0.11 26.228 5.551S21.637 18.413 15.988 18.413S5.748 11.213 5.748 5.551S10.326 3.742 15.988 3.742V3.742z" />
    <glyph glyph-name="phishing"
      unicode="&#xE082;"
      horiz-adv-x="32" d="M30.667 21.641H27.181C25.037 26.3 20.333 29.538 14.872 29.538C7.392 29.538 1.334 23.48 1.334 16S7.392 2.462 14.872 2.462C21.585 2.462 27.147 7.336 28.219 13.744H30.667V21.641zM14.872 27.282C19.046 27.282 22.69 25.014 24.642 21.641H5.101C7.053 25.014 10.697 27.282 14.871 27.282zM23.897 19.159V16H17.128V19.159H23.897zM12.615 19.159V16H8.102L5.846 19.159H12.615zM14.872 4.718C9.411 4.718 4.865 8.599 3.816 13.744H25.929C24.88 8.599 20.333 4.718 14.873 4.718zM10.359 11.487H18.256V9.231H10.359V11.487z" />
    <glyph glyph-name="pinpadconnect"
      unicode="&#xE083;"
      horiz-adv-x="32" d="M16 30.769C7.84 30.769 1.231 24.16 1.231 16S7.84 1.231 16 1.231S30.769 7.84 30.769 16S24.16 30.769 16 30.769zM11.569 7.877H7.877V11.569H11.569V7.877zM11.569 14.154H7.877V17.846H11.569V14.154zM11.569 20.431H7.877V24.123H11.569V20.431zM17.846 7.877H14.154V11.569H17.846V7.877zM17.846 14.154H14.154V17.846H17.846V14.154zM17.846 20.431H14.154V24.123H17.846V20.431zM24.123 7.877H20.431V11.569H24.123V7.877zM24.123 14.154H20.431V17.846H24.123V14.154zM24.123 20.431H20.431V24.123H24.123V20.431z" />
    <glyph glyph-name="pinpaddisconnected"
      unicode="&#xE084;"
      horiz-adv-x="32" d="M27.598 23.477L21.299 17.178H23.772V13.646H20.24V16.119L15.295 11.174H17.768V7.642H14.236V10.115L7.937 3.816C10.221 2.226 13 1.284 16.002 1.284C23.808 1.284 30.131 7.607 30.131 15.413C30.131 18.415 29.201 21.194 27.599 23.478zM23.771 7.64H20.239V11.172H23.771V7.64zM11.761 11.172L27.774 27.185V30.717L24.065 27.008C21.781 28.609 19.002 29.539 16 29.539C8.194 29.539 1.871 23.216 1.871 15.41C1.871 12.408 2.801 9.629 4.402 7.345L1.871 4.813V1.281L11.761 11.171zM14.234 23.182H17.766V20.709L16.706 19.649H14.233V23.181zM8.229 23.182H11.761V19.65H8.229V23.182zM8.229 17.177H11.761V14.704L10.701 13.644H8.228V17.176z" />
    <glyph glyph-name="pinterest"
      unicode="&#xE085;"
      horiz-adv-x="32" d="M16 30.769C7.84 30.769 1.231 24.16 1.231 16S7.84 1.231 16 1.231C24.16 1.231 30.769 7.84 30.769 16S24.16 30.769 16 30.769zM17.194 11.84C16.074 11.926 15.594 12.48 14.72 13.022C14.24 10.474 13.649 8.05 11.889 6.77C11.347 10.61 12.689 13.502 13.304 16.555C12.246 18.34 13.427 21.921 15.667 21.035C18.412 19.952 13.292 14.413 16.725 13.724C20.319 12.998 21.783 19.952 19.556 22.216C16.344 25.478 10.19 22.29 10.941 17.613C11.126 16.468 12.307 16.124 11.409 14.548C9.354 15.003 8.738 16.628 8.812 18.794C8.935 22.339 12 24.825 15.064 25.157C18.941 25.588 22.584 23.729 23.089 20.086C23.667 15.975 21.341 11.52 17.194 11.84z" />
    <glyph glyph-name="pinterest2"
      unicode="&#xE086;"
      horiz-adv-x="32" d="M14.038 11.436C13.3 7.534 12.389 3.805 9.693 1.848C8.868 7.743 10.911 12.162 11.859 16.863C10.234 19.595 12.056 25.085 15.477 23.731C19.686 22.069 11.834 13.577 17.102 12.519C22.616 11.411 24.856 22.07 21.447 25.541C16.512 30.55 7.084 25.652 8.241 18.489C8.524 16.741 10.333 16.2 8.967 13.787C5.804 14.489 4.869 16.975 4.992 20.298C5.189 25.726 9.878 29.541 14.58 30.058C20.525 30.723 26.112 27.88 26.888 22.28C27.762 15.966 24.205 9.123 17.842 9.615C16.107 9.763 15.393 10.612 14.039 11.437z" />
    <glyph glyph-name="place"
      unicode="&#xE087;"
      horiz-adv-x="32" d="M16.006 30.72C9.506 30.72 4.232 25.445 4.232 18.946C4.232 18.828 4.232 18.71 4.232 18.593C4.468 8.196 15.017 1.555 15.017 1.555C15.559 1.19 16.43 1.19 16.96 1.543C16.96 1.543 27.533 8.196 27.769 18.592C27.769 18.71 27.769 18.828 27.769 18.945C27.781 25.445 22.506 30.719 16.006 30.719zM16.006 13.059C12.756 13.059 10.119 15.696 10.119 18.946S12.756 24.833 16.006 24.833S21.893 22.195 21.893 18.946S19.256 13.059 16.006 13.059z" />
    <glyph glyph-name="play"
      unicode="&#xE088;"
      horiz-adv-x="32" d="M16 30.769C7.852 30.769 1.231 24.147 1.231 16S7.853 1.231 16 1.231S30.769 7.853 30.769 16S24.147 30.769 16 30.769zM13.169 9.354V22.646L22.031 16L13.169 9.354z" />
    <glyph glyph-name="point"
      unicode="&#xE089;"
      horiz-adv-x="32" d="M16.025 4.862L19.742 1.231V11.976C23.324 13.441 25.847 16.936 25.847 21.01C25.847 26.401 21.441 30.77 16.001 30.77S6.155 26.401 6.155 21.01C6.155 16.924 8.69 13.416 12.297 11.964V1.232L16.026 4.863zM16.098 17.452C13.92 17.452 12.16 19.2 12.16 21.354S13.92 25.256 16.098 25.256C18.276 25.256 20.036 23.508 20.036 21.354S18.276 17.452 16.098 17.452V17.452V17.452z" />
    <glyph glyph-name="print"
      unicode="&#xE08A;"
      horiz-adv-x="32" d="M27.071 23.385V29.539C27.071 30.216 26.529 30.77 25.853 30.77H6.148C5.471 30.77 4.93 30.216 4.93 29.539V23.385H1.238V9.847C1.238 9.17 1.792 8.616 2.469 8.616H4.931V2.462C4.931 1.785 5.473 1.231 6.149 1.231H25.854C26.531 1.231 27.072 1.785 27.072 2.462V8.616H29.534C30.211 8.616 30.765 9.17 30.765 9.847V23.385H27.073zM7.378 28.308H24.609V23.385H7.378V28.308zM24.609 3.692H7.378V11.077H24.609V3.692zM25.84 17.231H22.148V19.693H28.302L25.84 17.231zM19.686 8.615H9.84V6.153H17.225L19.687 8.615z" />
    <glyph glyph-name="productportfolio"
      unicode="&#xE08B;"
      horiz-adv-x="32" d="M29.538 24.609H23.384V28.301C23.384 29.003 22.83 29.532 22.153 29.532H9.845C9.168 29.532 8.614 28.978 8.614 28.301V24.609H2.46C1.783 24.609 1.229 24.067 1.229 23.391V3.686C1.229 3.009 1.783 2.468 2.46 2.468H29.537C30.214 2.468 30.768 3.01 30.768 3.686V23.391C30.768 24.068 30.214 24.609 29.537 24.609zM13.538 17.225H6.153V19.687H15.999L13.537 17.225zM20.923 24.609H11.077V27.071H20.923V24.609z" />
    <glyph glyph-name="promotion"
      unicode="&#xE08C;"
      horiz-adv-x="32" d="M16 30.769C7.84 30.769 1.231 24.16 1.231 16S7.84 1.231 16 1.231S30.769 7.84 30.769 16S24.16 30.769 16 30.769zM21.218 8.689L16.098 11.803L10.978 8.689L12.332 14.56L7.815 18.511L13.772 19.016L16.098 24.554L18.424 19.016L24.381 18.511L19.864 14.56L21.218 8.689z" />
    <glyph glyph-name="quotemark"
      unicode="&#xE08D;"
      horiz-adv-x="32" d="M13.538 27.692H7.384L1.23 17.846V4.308H14.768V17.846H7.383zM23.385 17.846L29.539 27.692H23.385L17.231 17.846V4.308H30.769V17.846z" />
    <glyph glyph-name="reademail"
      unicode="&#xE08E;"
      horiz-adv-x="32" d="M16.997 30.461C16.443 30.879 15.557 30.867 15.015 30.461L1.23 19.692V2.474C1.23 1.785 1.784 1.231 2.461 1.231H29.538C30.215 1.231 30.769 1.785 30.769 2.474V19.692L16.997 30.461zM16.96 8.159C16.431 7.741 15.557 7.728 15.028 8.159L3.693 17.23C3.693 17.907 4.235 18.461 4.911 18.461H27.089C27.754 18.461 28.307 17.907 28.307 17.23L16.959 8.159z" />
    <glyph glyph-name="reply"
      unicode="&#xE08F;"
      horiz-adv-x="32" d="M14.259 21.223V27.026L1.492 16.581L14.259 6.136V11.939C13.899 11.858 14.526 11.939 15.42 11.939C21.85 11.939 27.165 9.351 30.508 4.975C30.508 14.12 22.953 21.13 14.26 21.223z" />
    <glyph glyph-name="restaurant"
      unicode="&#xE090;"
      horiz-adv-x="32" d="M20.935 14.769L20.898 1.231H24.553L24.615 30.769C19.126 30.769 18.424 25.846 18.424 25.846V14.769zM14.154 30.769V24.443L12.554 23.385V30.77H10.831V24.444L9.231 23.386V30.771H7.385V18.463H9.847V1.232H13.539V18.463H16.001V30.771z" />
    <glyph glyph-name="retail"
      unicode="&#xE091;"
      horiz-adv-x="32" d="M10.773 30.666H6.24C6.093 30.666 5.96 30.626 5.84 30.559V30.666L1.333 26.399L5.306 22.772V2.132C4.986 1.692 5.333 1.332 5.773 1.332H26.093C26.533 1.332 26.546 1.692 26.546 2.132V22.892L30.666 26.399L26.573 30.266C26.493 30.399 26.373 30.519 26.24 30.586L26.147 30.666V30.626C26.067 30.653 25.974 30.666 25.88 30.666H21.227L16 26.399L10.773 30.666zM15.333 20.8H24V20.68L21.467 18.133H15.334V20.8z" />
    <glyph glyph-name="retirement"
      unicode="&#xE092;"
      horiz-adv-x="32" d="M30.103 30.667L23.447 24.011H8.667V21.755L17.58 12.729V3.591H13.18V1.335H24.462V3.591H20.175V12.729L28.975 21.755V24.011H26.64L30.104 27.475V30.668zM23.333 19.497H14.307L12.051 21.753H25.589L23.333 19.497zM6.974 30.667C4.165 30.667 1.897 28.399 1.897 25.59C1.897 22.973 3.871 20.829 6.41 20.547V26.154H12.017C11.735 28.692 9.591 30.667 6.974 30.667z" />
    <glyph glyph-name="return-12"
      unicode="&#xE093;"
      horiz-adv-x="32" d="M8.185 14.228L15.151 7.286L12.554 4.677L1.231 16.037L12.468 27.323L15.077 24.714L8.234 17.896H30.769L27.224 14.228z" />
    <glyph glyph-name="return-15"
      unicode="&#xE094;"
      horiz-adv-x="32" d="M28.062 29.538H3.939C3.127 29.538 2.462 28.873 2.462 28.061V3.938C2.462 3.126 3.127 2.461 3.939 2.461H28.062C28.874 2.461 29.539 3.126 29.539 3.938V28.061C29.539 28.873 28.874 29.538 28.062 29.538zM20.985 12.812L20.997 19.335L11.729 9.969H8.16L19.286 21.083L12.64 21.071V23.557L23.458 23.545L23.47 12.8L20.984 12.812z" />
    <glyph glyph-name="return"
      unicode="&#xE095;"
      horiz-adv-x="32" d="M16 30.769C11.077 30.769 6.732 28.369 4.037 24.664L1.231 27.076V17.23L9.846 19.692L6.855 22.252C8.849 25.169 12.197 27.077 16 27.077C22.117 27.077 27.077 22.117 27.077 16S22.117 4.923 16 4.923C11.102 4.923 6.954 8.098 5.489 12.492L1.981 11.323C3.938 5.465 9.476 1.231 15.999 1.231C24.159 1.231 30.768 7.84 30.768 16S24.159 30.769 15.999 30.769z" />
    <glyph glyph-name="retweet"
      unicode="&#xE096;"
      horiz-adv-x="32" d="M27.077 16V25.785C27.077 25.797 24.948 25.81 22.228 25.81L22.154 25.847V25.81C17.305 25.822 10.622 25.822 10.622 25.822L14.831 20.924H22.154V16.001H17.231L24.616 7.386L32.001 16.001H27.078zM17.169 11.052C17.157 11.064 17.144 11.077 17.12 11.077H9.846V16H14.769L7.384 24.615L-0.001 16H4.922V6.154H21.242C21.291 6.154 21.328 6.216 21.291 6.252L17.168 11.052z" />
    <glyph glyph-name="rewards"
      unicode="&#xE097;"
      horiz-adv-x="32" d="M3.692 22.769H14.695V16.554H3.692V22.769zM17.305 22.769H28.308V16.554H17.305V22.769zM17.231 22.769H28.234V16.554H17.231V22.769zM15.926 24L20.923 30.154L25.846 26.462L19.84 22.77H12.049L6.154 26.462L11.077 30.154L15.963 24zM4.923 14.154H14.769V1.846H4.923V14.154zM17.231 14.154H27.077V1.846H17.231V14.154z" />
    <glyph glyph-name="safeforlater"
      unicode="&#xE098;"
      horiz-adv-x="32" d="M20.665 29.538H3.36C2.954 29.538 2.462 29.39 2.462 28.984V3.384C2.462 2.978 2.954 2.461 3.36 2.461H28.96C29.366 2.461 29.538 2.978 29.538 3.384V20.701L20.664 29.538zM15.963 6.154L8.369 13.748L10.129 15.508L14.732 10.893L14.683 25.847L17.108 23.385V10.856L21.834 15.558L23.606 13.798L15.963 6.155z" />
    <glyph glyph-name="sales"
      unicode="&#xE099;"
      horiz-adv-x="32" d="M28.627 29.854H16.972C16.64 29.854 16.16 29.657 15.914 29.411L5.932 19.429L16.357 9.004H12.677L4.099 17.582L2.511 15.994C2.043 15.526 2.031 14.739 2.511 14.259L14.265 2.505C14.745 2.025 15.52 2.025 16 2.505L29.403 15.908C29.661 16.166 29.846 16.622 29.846 16.966V28.634C29.846 29.311 29.304 29.852 28.628 29.852zM22.485 20.045C21.131 20.045 20.036 21.14 20.036 22.494S21.131 24.943 22.485 24.943C23.839 24.943 24.934 23.848 24.934 22.494S23.839 20.045 22.485 20.045z" />
    <glyph glyph-name="savings"
      unicode="&#xE09A;"
      horiz-adv-x="32" d="M22.178 26.462C22.178 24.083 20.249 22.154 17.87 22.154S13.562 24.083 13.562 26.462C13.562 28.841 15.491 30.77 17.87 30.77S22.178 28.841 22.178 26.462zM29.538 16H28.258C27.753 18.892 26.116 21.428 23.778 23.188C22.621 21.108 20.406 19.693 17.858 19.693C14.707 19.693 12.049 21.859 11.298 24.788C11.126 24.714 10.966 24.64 10.793 24.566L7.605 27.077L7.507 22.388C6.313 21.28 5.353 19.939 4.713 18.45C4.701 18.45 4.688 18.45 4.676 18.45H2.707C1.895 18.45 1.23 17.785 1.23 16.973V12.542C1.23 11.73 1.895 11.065 2.707 11.065H4.233C5.082 8.062 7.187 5.527 9.968 4V1.969C9.968 1.563 10.3 1.231 10.706 1.231H12.921C13.327 1.231 13.659 1.563 13.659 1.969V2.695C14.459 2.547 15.284 2.461 16.121 2.461S17.783 2.547 18.583 2.695V1.969C18.583 1.563 18.915 1.231 19.321 1.231H21.536C21.942 1.231 22.274 1.563 22.274 1.969V4.012C25.794 5.932 28.219 9.464 28.416 13.538H29.536C30.213 13.538 30.767 14.092 30.767 14.769S30.213 16 29.536 16zM10.585 16C9.563 16 8.739 16.825 8.739 17.846S9.564 19.692 10.585 19.692S12.431 18.867 12.431 17.846S11.606 16 10.585 16z" />
    <glyph glyph-name="seachinglocation"
      unicode="&#xE09B;"
      horiz-adv-x="32" d="M16.006 30.72C9.506 30.72 4.232 25.445 4.232 18.946C4.232 18.828 4.232 18.71 4.232 18.593C4.468 8.196 15.017 1.555 15.017 1.555C15.559 1.19 16.43 1.19 16.96 1.543C16.96 1.543 27.533 8.196 27.769 18.592C27.769 18.71 27.769 18.828 27.769 18.945C27.781 25.445 22.506 30.719 16.006 30.719zM10.707 17.768C9.73 17.768 8.941 18.557 8.941 19.534S9.73 21.3 10.707 21.3S12.473 20.511 12.473 19.534S11.684 17.768 10.707 17.768zM16.006 17.768C15.029 17.768 14.24 18.557 14.24 19.534S15.029 21.3 16.006 21.3S17.772 20.511 17.772 19.534S16.983 17.768 16.006 17.768zM21.304 17.768C20.327 17.768 19.538 18.557 19.538 19.534S20.327 21.3 21.304 21.3S23.07 20.511 23.07 19.534S22.281 17.768 21.304 17.768z" />
    <glyph glyph-name="search"
      unicode="&#xE09C;"
      horiz-adv-x="32" d="M23.04 11.627C24.48 13.6 25.333 16.04 25.333 18.667C25.333 25.294 19.96 30.667 13.333 30.667S1.333 25.294 1.333 18.667S6.706 6.667 13.333 6.667C15.96 6.667 18.4 7.52 20.373 8.96L28 1.333L30.667 4L23.04 11.627zM18.667 18.667C18.667 21.614 16.28 24 13.334 24V26.667C17.747 26.667 21.334 23.08 21.334 18.667H18.667z" />
    <glyph glyph-name="security"
      unicode="&#xE09D;"
      horiz-adv-x="32" d="M13.449 14.087H17.275L18.55 15.362H13.449zM16 23.014C14.584 23.014 13.449 21.879 13.449 20.463V19.188H18.55V20.463C18.55 21.879 17.402 23.014 15.999 23.014zM30.029 29.391C30.029 30.08 29.455 30.666 28.754 30.666H3.247C2.533 30.666 1.972 30.092 1.972 29.391V20.463C1.972 2.608 16.001 1.333 16.001 1.333S30.03 2.608 30.03 20.463V29.391zM21.101 11.536C21.101 10.835 20.527 10.261 19.826 10.261H12.174C11.473 10.261 10.899 10.822 10.899 11.536V17.913C10.899 18.614 11.473 19.188 12.174 19.188V19.188V20.463C12.174 22.58 13.896 24.289 16 24.289C18.117 24.289 19.826 22.567 19.826 20.463V19.188C20.527 19.188 21.101 18.627 21.101 17.913V11.536z" />
    <glyph glyph-name="seecvv"
      unicode="&#xE09E;"
      horiz-adv-x="32" d="M29.538 27.077H2.461C1.784 27.077 1.23 26.535 1.23 25.859V22.154H13.538L11.076 19.692H1.23V6.141C1.23 5.464 1.784 4.923 2.461 4.923H29.538C30.215 4.923 30.769 5.465 30.769 6.141V25.858C30.769 26.535 30.215 27.076 29.538 27.076zM22.154 11.077C18.757 11.077 16 13.834 16 17.231S18.757 23.385 22.154 23.385S28.308 20.628 28.308 17.231S25.551 11.077 22.154 11.077zM19.692 16H23.384L25.846 18.462H19.692V16z" />
    <glyph glyph-name="send"
      unicode="&#xE09F;"
      horiz-adv-x="32" d="M29.617 16.819L3.475 28.228C3.143 28.376 2.749 28.302 2.478 28.043L2.096 27.661C1.838 27.403 1.764 26.996 1.911 26.664L6.489 16.362C6.587 16.128 6.587 15.857 6.489 15.636L1.923 5.334C1.775 4.989 1.849 4.596 2.108 4.337L2.49 3.955C2.748 3.697 3.142 3.623 3.487 3.77L29.629 15.179C30.343 15.474 30.343 16.508 29.617 16.816zM6.774 8.609L10.466 16.117H24.004L6.773 8.609z" />
    <glyph glyph-name="services"
      unicode="&#xE0A0;"
      horiz-adv-x="32" d="M28.194 10.674C27.961 17.109 22.602 22.247 16.022 22.247S4.083 17.11 3.85 10.674H3.795V8.233H28.205L28.194 10.674zM22.946 14.114C22.58 14.68 22.136 15.212 21.637 15.69C20.805 16.489 19.828 17.11 18.774 17.521V19.285C20.261 18.797 21.637 17.998 22.791 16.888C23.645 16.067 24.344 15.135 24.866 14.103H22.946zM16 23.767C17.221 23.767 18.219 24.766 18.219 25.986S17.22 28.205 16 28.205S13.781 27.206 13.781 25.986C13.781 24.765 14.78 23.767 16 23.767V23.767zM1.576 6.014H30.425V3.795H1.576V6.014z" />
    <glyph glyph-name="settings"
      unicode="&#xE0A1;"
      horiz-adv-x="32" d="M15.994 9.84C12.597 9.84 9.84 12.597 9.84 15.994S12.597 22.148 15.994 22.148C19.391 22.148 22.148 19.391 22.148 15.994S19.391 9.84 15.994 9.84zM30.406 12.794C30.64 13.828 30.763 14.899 30.763 16.006C30.763 17.04 30.652 18.061 30.455 19.034L26.984 19.489C26.812 20.043 26.59 20.584 26.332 21.101L28.498 23.87C27.341 25.692 25.803 27.242 23.993 28.412L21.211 26.27C20.706 26.528 20.189 26.75 19.66 26.922L19.242 30.405C18.196 30.639 17.113 30.762 16.005 30.762S13.814 30.639 12.768 30.405L12.423 26.959C11.82 26.762 11.241 26.516 10.688 26.233L7.845 28.325C6.134 27.18 4.67 25.691 3.562 23.968L5.728 21.211C5.445 20.657 5.199 20.066 5.014 19.463L1.543 19.008C1.346 18.036 1.235 17.026 1.235 15.993C1.235 14.861 1.358 13.765 1.604 12.707L5.087 12.313C5.272 11.784 5.481 11.267 5.739 10.762L3.597 7.968C4.754 6.183 6.292 4.657 8.089 3.525L10.907 5.667C11.375 5.433 11.867 5.236 12.372 5.064L12.766 1.593C13.8 1.359 14.883 1.236 15.991 1.236C17.062 1.236 18.108 1.347 19.117 1.568L19.659 5.076C20.176 5.248 20.681 5.458 21.161 5.704L23.844 3.489C25.641 4.621 27.167 6.123 28.336 7.895L26.158 10.59C26.441 11.132 26.687 11.698 26.884 12.276L30.404 12.793z" />
    <glyph glyph-name="share"
      unicode="&#xE0A2;"
      horiz-adv-x="32" d="M13.305 14.523L19.483 10.4C20.381 11.569 21.797 12.32 23.385 12.32C26.105 12.32 28.308 10.117 28.308 7.397S26.105 2.474 23.385 2.474S18.462 4.677 18.462 7.397C18.462 7.532 18.462 7.668 18.474 7.791L11.791 12.246C10.929 11.52 9.822 11.077 8.616 11.077C5.896 11.077 3.693 13.28 3.693 16S5.896 20.923 8.616 20.923C9.822 20.923 10.942 20.48 11.791 19.754L18.474 24.209C18.462 24.344 18.462 24.48 18.462 24.603C18.462 27.323 20.665 29.526 23.385 29.526S28.308 27.323 28.308 24.603S26.105 19.68 23.385 19.68C21.797 19.68 20.394 20.431 19.483 21.6L13.305 17.477C13.453 17.009 13.539 16.505 13.539 15.988C13.539 15.496 13.453 14.991 13.305 14.523z" />
    <glyph glyph-name="shop"
      unicode="&#xE0A3;"
      horiz-adv-x="32" d="M31.385 21.415L27.693 27.692H5.539L0.616 21.415zM25.809 19.077V9.231H6.117V19.077H3.655V5.046C3.655 4.64 4.024 4.308 4.43 4.308H27.568C27.974 4.308 28.27 4.64 28.27 5.046V19.077H25.808zM8.615 14.154H20.923L18.88 11.692H8.615z" />
    <glyph glyph-name="shopping"
      unicode="&#xE0A4;"
      horiz-adv-x="32" d="M23.385 23.385V23.385C23.385 27.459 20.074 30.77 16 30.77S8.615 27.472 8.615 23.398V23.386H3.692V2.463C3.692 1.786 4.234 1.232 4.91 1.232H27.088C27.753 1.232 28.306 1.786 28.306 2.463V23.386H23.383zM11.077 14.769L8.615 12.307V18.461H11.077V14.769zM11.077 23.385C11.077 26.105 13.292 28.308 16 28.308C18.72 28.308 20.923 26.105 20.923 23.385H11.077zM23.385 14.769L20.923 12.307V18.461H23.385V14.769z" />
    <glyph glyph-name="slideshare"
      unicode="&#xE0A5;"
      horiz-adv-x="32" d="M23.138 22.523C23.138 23.692 22.769 24.246 21.698 24.246H10.412C9.28 24.246 8.861 23.766 8.861 22.523V15.692C11.323 14.437 13.378 14.658 14.51 14.695C14.978 14.72 15.31 14.609 15.495 14.424C15.532 14.399 15.569 14.362 15.606 14.338C15.815 14.141 16.037 13.969 16.234 13.821C16.271 14.375 16.591 14.744 17.428 14.695C18.573 14.658 20.677 14.424 23.139 15.753V22.522zM13.625 15.569C12.443 15.569 11.496 16.467 11.496 17.587C11.496 18.695 12.444 19.605 13.625 19.605S15.754 18.707 15.754 17.587S14.794 15.569 13.625 15.569zM18.658 15.569C17.476 15.569 16.529 16.467 16.529 17.587C16.529 18.695 17.477 19.605 18.658 19.605S20.787 18.707 20.787 17.587C20.787 16.467 19.827 15.569 18.658 15.569zM16 30.769C7.84 30.769 1.231 24.16 1.231 16S7.84 1.231 16 1.231S30.769 7.84 30.769 16S24.16 30.769 16 30.769zM24.8 15.803C24.148 15.003 22.917 14.018 21.034 13.243C23.04 6.437 16.16 5.354 16.259 8.837C16.259 8.775 16.259 10.708 16.247 12.148C16.099 12.185 15.939 12.222 15.767 12.271C15.767 10.819 15.755 8.776 15.755 8.837C15.866 5.342 8.986 6.425 10.98 13.243C9.085 14.018 7.854 15.003 7.214 15.803C6.882 16.295 7.177 16.812 7.719 16.431C7.793 16.382 7.879 16.333 7.879 16.283V23.323C7.879 24.308 8.728 25.108 9.627 25.108H22.378C23.276 25.108 24.003 24.308 24.003 23.323V16.283C24.003 16.332 24.151 16.381 24.225 16.431C24.767 16.813 25.136 16.296 24.803 15.803z" />
    <glyph glyph-name="slideshare2"
      unicode="&#xE0A6;"
      horiz-adv-x="32" d="M5.378 14.582V25.844C5.378 27.715 5.858 28.293 7.556 28.293H24.59C26.215 28.293 26.781 27.591 26.781 25.844V14.927L28.098 15.838V27.05C28.098 28.527 26.99 29.721 25.624 29.721H6.387C5.021 29.721 3.913 28.527 3.913 27.05V15.493L5.378 14.582zM16.357 12.502C16.357 13.462 16.8 14.102 18.166 14.028C20.148 13.966 24.024 13.523 28.406 16.65C29.231 17.216 29.76 16.441 29.255 15.702C28.283 14.508 26.412 13.019 23.569 11.85C26.597 1.573 16.209 -0.064 16.357 5.204C16.369 5.056 16.357 12.502 16.357 12.502zM20.578 13.228C19.15 11.259 17.44 11.628 15.433 13.486C15.384 13.535 15.335 13.584 15.285 13.621C15.002 13.916 14.547 14.076 13.833 14.039C11.851 13.977 7.975 13.534 3.593 16.661C2.768 17.227 2.239 16.452 2.744 15.713C3.716 14.519 5.587 13.03 8.43 11.861C5.415 1.584 15.79 -0.053 15.642 5.215C15.642 5.117 15.642 8.206 15.654 10.397C16.86 10.114 17.365 9.855 19.039 10.225C20.627 10.594 21.414 11.727 21.734 12.527C22.263 13.869 21.316 14.25 20.577 13.229zM23.212 18.385C23.212 16.706 21.774 15.345 20 15.345S16.788 16.706 16.788 18.385C16.788 20.064 18.226 21.425 20 21.425S23.212 20.064 23.212 18.385zM15.618 18.385C15.618 16.706 14.18 15.345 12.406 15.345S9.194 16.706 9.194 18.385C9.194 20.064 10.632 21.425 12.406 21.425S15.618 20.064 15.618 18.385z" />
    <glyph glyph-name="stock"
      unicode="&#xE0A7;"
      horiz-adv-x="32" d="M11.077 17.231L2.462 8.616V3.693C2.462 3.004 3.016 2.462 3.693 2.462H28.308C28.997 2.462 29.539 3.016 29.539 3.693V20.924L18.462 9.847L11.077 17.232zM28.308 29.538H3.693C3.004 29.538 2.462 28.984 2.462 28.307V13.538L11.077 22.153L18.462 14.768L29.539 25.845V28.307C29.539 28.996 28.985 29.538 28.308 29.538z" />
    <glyph glyph-name="substract"
      unicode="&#xE0A8;"
      horiz-adv-x="32" d="M16 30.667C7.897 30.667 1.333 24.104 1.333 16S7.896 1.333 16 1.333C24.103 1.333 30.667 7.896 30.667 16S24.104 30.667 16 30.667zM22.111 14.778H8.667V17.222H24.556L22.112 14.778z" />
    <glyph glyph-name="supermarket"
      unicode="&#xE0A9;"
      horiz-adv-x="32" d="M30.02 20.917H23.509C23.435 26.702 20.395 29.532 16.014 29.532C11.768 29.532 8.703 26.701 8.629 20.917H1.983C1.503 20.917 1.171 20.412 1.245 19.945L3.633 3.342C3.695 2.874 4.138 2.468 4.605 2.468H27.337C27.805 2.468 28.248 2.813 28.309 3.28L30.758 19.969C30.82 20.424 30.487 20.917 30.02 20.917zM11.078 7.378L8.616 8.966V14.763H11.078V7.378zM16.001 27.243C18.819 27.243 20.863 25.594 20.924 20.917H11.189C11.251 25.594 13.318 27.243 16.001 27.243zM17.232 7.378L14.77 8.966V14.763H17.232V7.378zM23.386 7.378L20.924 8.966V14.763H23.386V7.378z" />
    <glyph glyph-name="support"
      unicode="&#xE0AA;"
      horiz-adv-x="32" d="M29.538 29.538H2.461C1.784 29.538 1.23 28.984 1.23 28.307V2.461L6.153 7.384H29.538C30.215 7.384 30.769 7.938 30.769 8.615V28.307C30.769 28.984 30.215 29.538 29.538 29.538zM16 17.231H6.154V19.693H18.462L16 17.231zM20.923 22.154H6.154V24.616H23.385L20.923 22.154z" />
    </font>
</defs>
</svg>
